<svg t="1642489543400" class="icon" viewBox="0 0 1024 1024" version="1.1" xmlns="http://www.w3.org/2000/svg" p-id="12782" width="200" height="200"><path d="M512 10.24A501.76 501.76 0 1 0 1013.76 512 500.1216 500.1216 0 0 0 512 10.24z" fill="#FBBE34" p-id="12783"></path><path d="M728.6784 532.48L409.6 714.9568a23.1424 23.1424 0 0 1-31.9488-9.0112 17.408 17.408 0 0 1-2.2528-11.4688V329.5232c0-4.5056 0-6.7584 2.2528-9.0112a14.7456 14.7456 0 0 1 11.4688-9.216 31.9488 31.9488 0 0 1 20.48 0l317.0304 182.4768a17.2032 17.2032 0 0 1 9.0112 9.216 18.6368 18.6368 0 0 1-6.9632 29.4912z" fill="#FFFFFF" p-id="12784"></path></svg>