<svg t="1642495559466" class="icon" viewBox="0 0 1024 1024" version="1.1" xmlns="http://www.w3.org/2000/svg" p-id="17408" width="200" height="200"><path d="M512 290.816c73.216 0 138.24 35.328 178.688 90.112l28.16 7.68C676.352 318.464 599.552 271.36 512 271.36c-42.496 0-82.432 10.752-116.736 30.208l28.16 7.68c27.136-11.776 56.832-18.432 88.576-18.432z m145.92-12.288l15.36 12.8 4.608-18.944 17.408-10.24-17.408-10.24-4.608-18.944-15.36 12.8-20.48-1.536 7.68 17.92-7.68 17.92 20.48-1.536zM389.12 236.032L373.248 225.28l-3.584 19.456-16.384 12.288 17.408 8.192 5.632 18.432 14.336-14.336 19.968-0.512-8.704-17.408 6.656-18.944-19.456 3.584z m148.992-27.136l-11.776-15.36-9.216 17.408-19.456 6.656 14.336 13.312v19.456l17.92-9.216 18.944 5.632-3.072-18.944 11.776-16.384-19.456-2.56z m216.064 121.344l-16.896-11.776-2.56 19.456-15.872 11.264L737.28 358.4l7.168 18.432 13.824-13.824h19.968l-9.728-17.408 5.632-18.432-19.968 3.072zM971.776 476.16L132.608 251.392c-20.48-5.632-41.984 6.656-47.104 27.136L25.088 502.272c-5.632 20.48 6.656 41.984 27.136 47.104l839.168 224.768c20.48 5.632 41.984-6.656 47.104-27.136l59.904-223.744c6.144-20.48-6.144-41.472-26.624-47.104z m6.144 51.712l-54.784 205.312c-4.096 15.36-19.968 24.576-35.328 20.48L66.56 533.504c-15.36-4.096-24.576-19.968-20.48-35.328l54.784-205.312c4.096-15.36 19.968-24.576 35.328-20.48l821.248 220.16c15.36 4.096 24.576 19.968 20.48 35.328z m-465.92-362.496c160.768 0 295.936 109.056 335.872 257.536l21.504 5.632c-37.888-161.792-183.296-282.624-356.864-282.624-105.472 0-200.192 44.544-267.264 115.2l21.504 5.632C329.216 204.288 416.256 165.376 512 165.376z m88.576 550.912c-27.136 11.776-57.344 18.432-88.576 18.432-73.216 0-138.24-35.328-178.688-90.112l-28.16-7.68c42.496 70.144 118.784 116.736 206.848 116.736 42.496 0 82.432-10.752 116.736-30.208l-28.16-7.168z m-207.36 40.448l-15.36-12.288-4.608 18.944-17.408 10.24 17.408 10.24 4.608 18.944 15.36-12.288 19.968 1.536-7.68-17.92 7.68-17.92-19.968 0.512z m118.784 59.392l11.776 15.36 9.216-17.408 18.944-6.656-14.336-13.312v-19.456l-17.92 9.216-18.944-5.632 3.072 18.944-11.776 15.872 19.968 3.072z m-244.224-121.344l15.872 12.8 3.584-18.944 16.384-10.24-17.408-10.24-5.632-18.944-14.336 12.8-19.968-1.536 8.704 17.92-6.656 17.92 19.456-1.536zM512 860.16c-160.768 0-295.936-109.056-335.872-257.536l-21.504-5.632c37.888 161.792 183.296 282.624 356.864 282.624 105.472 0 200.192-44.544 267.264-115.2l-21.504-5.632C694.784 821.76 607.744 860.16 512 860.16z m139.776-70.656l15.872 11.264 3.584-19.456 16.384-12.288-17.408-8.192-5.632-18.432-14.336 14.336-19.968 0.512 8.704 17.408-6.144 18.944 18.944-4.096z" p-id="17409"></path><path d="M361.984 483.84c9.216 7.168 17.408 13.312 24.576 17.92-6.656 13.824-11.776 24.064-15.872 30.72-4.096 7.168-9.728 11.264-16.896 13.312-7.168 2.048-16.384 1.536-27.648-1.536l-77.312-20.992c-25.6-6.656-34.816-23.552-27.648-50.176l20.48-76.288 26.624 7.168-4.608 17.408 86.528 23.552 10.24-37.888-117.76-31.744 6.656-24.576 144.384 38.912L370.176 476.16l-113.152-30.72-8.704 32.256c-3.072 11.776 1.024 19.456 12.288 22.528l66.56 17.92c5.632 1.536 10.24 2.048 14.336 1.024 4.096-1.024 6.656-3.072 8.704-7.68 2.048-4.096 5.632-13.312 11.776-27.648zM413.184 551.936l19.968 5.12 20.992-77.312 53.76 14.336 2.048-7.168L440.32 467.968l4.096-15.872 69.632 18.944 2.048-7.68-61.952-16.896 10.752-40.448 155.648 41.984-10.752 40.448L542.72 471.04l-2.048 7.68 73.728 19.968-4.096 15.872-73.728-19.968-2.048 7.168 57.856 15.36-20.992 77.312 19.968 5.632-4.608 16.384-178.176-48.128 4.608-16.384z m44.544 12.288l88.576 24.064 2.048-7.168-88.576-24.064-2.048 7.168z m4.608-18.432l88.576 24.064 2.048-6.656-88.576-24.064-2.048 6.656z m5.12-18.432l88.576 24.064 2.048-6.656-88.576-24.064-2.048 6.656z m95.744-1.024l-88.576-24.064-2.048 6.656 88.576 24.064 2.048-6.656zM480.768 438.272l22.528 6.144 3.072-11.264-22.528-6.144-3.072 11.264z m43.52 11.776l22.528 6.144 3.072-11.264-22.528-6.144-3.072 11.264z m65.536 17.92l3.072-11.264-22.528-6.144-3.072 11.264 22.528 6.144zM668.672 464.896l62.976 16.896-6.656 24.576-15.872-4.096-29.696 110.08c-2.048 7.168-4.608 12.8-8.704 16.384-3.584 3.584-7.68 5.12-12.288 5.12s-14.336-2.048-29.696-6.144c1.024-7.168 2.048-15.36 2.048-24.576 5.12 2.048 10.752 3.584 15.872 5.12 4.608 1.536 7.68-0.512 9.216-6.144l28.672-107.008-23.04-6.144 7.168-24.064z m88.064 98.304l23.552 6.144c-4.608 17.408-10.24 31.744-15.872 42.496 13.824 15.36 28.16 31.744 41.984 49.152l-20.48 15.36c-9.216-13.312-20.992-28.672-35.328-46.08-11.776 11.264-31.232 18.432-59.392 20.992-2.048-8.192-4.608-16.896-8.192-27.136 13.824 0 25.6-1.536 35.84-5.12s17.92-9.728 23.04-18.432c5.632-9.216 10.752-21.504 14.848-37.376z m-22.016-82.432l109.056 29.696-6.144 22.016-47.104-12.8-7.68 16.384 45.568 12.288-22.016 81.408-24.064-6.656 16.384-60.416-55.296-14.848-16.384 61.44-24.064-6.656 22.528-82.944 30.72 8.192 7.68-16.384-35.328-9.728 6.144-20.992z" p-id="17410"></path></svg>