<svg t="1644643159291" class="icon" viewBox="0 0 1260 1024" version="1.1" xmlns="http://www.w3.org/2000/svg" p-id="11583" width="200" height="200"><path d="M630.153846 51.593846c231.030154 0 437.169231 141.312 617.944616 417.319385a73.806769 73.806769 0 0 1 0 81.289846C1067.323077 826.289231 861.184 967.601231 630.153846 967.601231S192.984615 826.289231 12.209231 550.203077a73.806769 73.806769 0 0 1 0-81.289846C192.984615 192.984615 399.123692 51.593846 630.153846 51.593846z m30.011077 171.716923c-165.730462 0-300.110769 128.157538-300.110769 286.247385 0 158.089846 134.380308 286.247385 300.110769 286.247384s300.110769-128.157538 300.110769-286.247384c0-158.089846-134.380308-286.247385-300.110769-286.247385z m0 457.964308c99.406769 0 180.066462-76.878769 180.066462-171.716923 0-94.838154-80.659692-171.716923-180.066462-171.716923s-180.066462 76.878769-180.066461 171.716923c0 94.838154 80.659692 171.716923 180.066461 171.716923z" p-id="11584" fill="#8a8a8a"></path></svg>
