<svg t="1644643131768" class="icon" viewBox="0 0 1055 1024" version="1.1" xmlns="http://www.w3.org/2000/svg" p-id="9990" width="200" height="200"><path d="M887.808 426.496h-229.376c89.088-328.192-61.44-345.088-61.44-345.088-63.488 0-50.688 50.176-55.296 58.88 0 160.768-170.496 286.72-170.496 286.72v455.68c0 45.056 61.44 60.928 85.504 60.928h344.576c32.256 0 58.88-84.992 58.88-84.992 85.504-290.304 85.504-376.32 85.504-376.32-0.512-60.928-57.856-55.808-57.856-55.808zM276.992 426.496H139.264c-28.16 0-28.672 27.648-28.672 27.648l28.16 459.264c0 29.184 29.184 29.184 29.184 29.184H286.72c24.576 0 24.576-19.456 24.576-19.456V461.312c0.512-35.328-34.304-34.816-34.304-34.816z" fill="#8a8a8a" p-id="9991"></path></svg>
