<svg t="1632296996529" class="icon" viewBox="0 0 1024 1024" version="1.1" xmlns="http://www.w3.org/2000/svg" p-id="4377" width="200" height="200"><path d="M742.24 180.69300001c3.21700001 0 5.824-2.60699999 5.824-5.82400001s-2.60699999-5.824-5.824-5.824a5.823 5.823 0 0 0-5.824 5.824 5.823 5.823 0 0 0 5.824 5.82400001zM874.912 309.269c6.39800001 0 11.584-5.186 11.584-11.584s-5.186-11.584-11.584-11.584-11.584 5.186-11.584 11.584 5.186 11.584 11.584 11.584zM943.2 482.581c9.61399999 0 17.408-7.794 17.408-17.408s-7.794-17.408-17.408-17.408-17.408 7.794-17.408 17.408 7.794 17.408 17.408 17.408z m-9.152 186.56c12.79500001 0 23.168-10.373 23.168-23.168s-10.373-23.168-23.16799999-23.168-23.168 10.373-23.16800001 23.16800001 10.373 23.168 23.168 23.16799999zM849.12 834.645c16.012 0 28.992-12.98 28.992-28.992s-12.98-28.992-28.992-28.992-28.992 12.98-28.992 28.992 12.98 28.992 28.992 28.992zM704.736 949.269c19.228 0 34.816-15.588 34.816-34.816s-15.588-34.816-34.81600001-34.816-34.816 15.588-34.81599999 34.81599999 15.588 34.816 34.816 34.81600001z m-177.28 43.008c22.41000001 0 40.576-18.166 40.576-40.576s-18.166-40.576-40.576-40.576-40.576 18.166-40.576 40.576 18.166 40.576 40.576 40.576z m-176.128-35.392c25.62599999 0 46.4-20.774 46.4-46.4s-20.774-46.4-46.4-46.4c-25.62599999 0-46.4 20.774-46.39999999 46.4 0 25.62599999 20.774 46.4 46.39999999 46.4z m-142.01599999-106.176c28.843 0 52.224-23.381 52.22399999-52.224s-23.381-52.224-52.224-52.224c-28.843 0-52.224 23.381-52.224 52.224 0 28.843 23.381 52.224 52.22400001 52.224z m-81.34400001-155.904c32.024 0 57.984-25.96 57.984-57.984s-25.96-57.984-57.984-57.984-57.984 25.96-57.984 57.984 25.96 57.984 57.984 57.984z m-5.056-175.104c35.24 0 63.808-28.568 63.808-63.808s-28.568-63.808-63.808-63.808c-35.24 0-63.808 28.568-63.808 63.808 0 35.24 28.568 63.808 63.808 63.808z m72.128-160.32c38.421 0 69.568-31.147 69.568-69.568s-31.147-69.568-69.568-69.568-69.568 31.147-69.568 69.568 31.147 69.568 69.568 69.568z m135.488-113.92000001c41.63800001 0 75.392-33.754 75.392-75.39199999s-33.754-75.392-75.392-75.392-75.392 33.754-75.392 75.392 33.754 75.392 75.392 75.39199999z m175.488-45.31199999c44.854 0 81.216-36.362 81.216-81.216s-36.362-81.216-81.216-81.216c-44.854 0-81.216 36.362-81.216 81.216 0 44.854 36.362 81.216 81.216 81.216z" fill="" p-id="4378"></path></svg>