<svg t="1638293374197" class="icon" viewBox="0 0 1024 1024" version="1.1" xmlns="http://www.w3.org/2000/svg" p-id="5840" width="200" height="200"><path d="M936.668896 452.06689c-3.424749-13.698997-10.274247-27.397993-23.973244-37.672241-78.769231-85.618729-260.280936-215.759197-349.324415-277.404682-30.822742-20.548495-71.919732-20.548495-102.742474 0-89.043478 61.645485-267.130435 191.785953-345.899666 273.979933-6.849498 10.274247-17.123746 17.123746-20.548495 30.822742-13.698997 30.822742 0 58.220736 34.247492 61.645485 17.123746 0 34.247492 3.424749 51.371237 0 13.698997 0 17.123746 3.424749 17.123746 17.123746v119.866221c0 54.795987-3.424749 109.591973 3.424749 164.38796C203.772575 856.187291 244.869565 890.434783 296.240803 890.434783h438.367893c20.548495 0 37.672241-6.849498 54.795986-17.123746 30.822742-23.973244 41.09699-54.795987 41.09699-92.468228v-263.705685c0-13.698997 3.424749-17.123746 17.123746-17.123746 20.548495 0 41.09699 3.424749 65.070234 0 17.123746-6.849498 30.822742-23.973244 23.973244-47.946488z m-215.759197 133.565217c-3.424749 13.698997-10.274247 23.973244-20.548495 27.397993-34.247492 13.698997-51.371237 41.09699-41.09699 78.769231 3.424749 13.698997 0 20.548495-10.274247 27.397993-17.123746 13.698997-34.247492 23.973244-54.795987 34.247492-10.274247 6.849498-20.548495 3.424749-30.822743-3.424749-34.247492-27.397993-54.795987-27.397993-92.468227 0-6.849498 6.849498-17.123746 6.849498-23.973244 3.424749-23.973244-6.849498-41.09699-20.548495-61.645485-34.247492-10.274247-6.849498-13.698997-17.123746-10.274248-27.397993 6.849498-37.672241-6.849498-65.070234-44.521739-78.769231-10.274247-3.424749-17.123746-10.274247-20.548495-23.973244-3.424749-23.973244-3.424749-47.946488 0-71.919732 3.424749-13.698997 10.274247-20.548495 20.548495-23.973244 34.247492-13.698997 47.946488-41.09699 41.09699-75.344482-3.424749-13.698997 0-23.973244 13.698997-30.822742 17.123746-13.698997 34.247492-23.973244 54.795987-30.822743 10.274247-3.424749 20.548495-3.424749 30.822742 3.424749 30.822742 27.397993 58.220736 27.397993 89.043478 0 6.849498-6.849498 17.123746-10.274247 27.397994-6.849498 23.973244 10.274247 44.521739 20.548495 65.070234 37.672241 3.424749 3.424749 10.274247 10.274247 6.849498 20.548495v6.849498c-6.849498 34.247492 13.698997 65.070234 44.521739 75.344482 13.698997 3.424749 20.548495 10.274247 20.548495 23.973244-3.424749 23.973244 0 47.946488-3.424749 68.494983z" p-id="5841"></path><path d="M512 554.809365m-99.317726 0a99.317726 99.317726 0 1 0 198.635452 0 99.317726 99.317726 0 1 0-198.635452 0Z" p-id="5842"></path></svg>
