<svg t="1635840432262" class="icon" viewBox="0 0 1024 1024" version="1.1" xmlns="http://www.w3.org/2000/svg" p-id="14359" width="200" height="200"><path d="M511.488005 657.776462C423.136889 657.776462 351.489605 586.129179 351.489605 497.778062 351.489605 409.394946 423.136889 337.779662 511.488005 337.779662 599.839122 337.779662 671.486405 409.394946 671.486405 497.778062 671.486405 586.129179 599.839122 657.776462 511.488005 657.776462M862.908491 518.321857C863.292487 511.537925 863.484485 504.657993 863.484485 497.778062 863.484485 484.562194 862.748493 471.538325 861.340507 458.738453L965.051469 386.771172C979.291327 376.883271 984.02728 356.243478 975.227368 340.97963L879.132329 174.549295C870.428416 159.477445 850.300617 152.98151 834.396776 160.469435L720.221918 214.292897C699.326127 198.901051 676.670353 185.749183 652.606594 175.189288L642.142699 56.598474C640.702713 39.350646 625.214868 32.02272 607.583044 32.02272L415.392966 32.02272C397.98514 32.02272 382.305297 39.094649 380.833312 56.598474L370.369416 178.741253C344.609674 190.03714 320.481915 202.549015 298.402136 219.380846L177.283347 161.397426C161.603504 154.0055 141.379706 159.733443 132.547795 174.99729L36.452755 341.203628C27.748843 356.307477 32.196798 376.851271 46.660653 386.899171L160.899511 466.130379C159.97152 476.562274 159.491525 487.122169 159.491525 497.810062 159.491525 504.689993 159.683523 511.505925 160.067519 518.321857L57.924541 589.233148C43.684683 599.089049 38.948731 619.728843 47.748643 634.99269L143.843682 801.423026C152.547595 816.494875 172.675393 822.99081 188.579234 815.502885L287.138249 769.03935C312.193998 789.775142 340.193718 807.118969 370.369416 820.334837L380.833312 953.197508C382.273297 970.477335 397.761142 992.01312 415.392966 992.01312L607.583044 992.01312C624.99087 992.01312 640.670713 970.701333 642.142699 953.197508L652.606594 823.886801C682.782292 810.670933 710.750012 791.567124 735.805762 770.831332L834.396776 816.398876C850.076619 823.790802 870.300417 817.134869 879.132329 801.871021L975.227368 635.216688C983.931281 620.144839 979.451325 599.345047 965.01947 589.329147L862.908491 518.321857Z" p-id="14360" fill="#999999"></path></svg>