<svg t="1636189275207" class="icon" viewBox="0 0 1024 1024" version="1.1" xmlns="http://www.w3.org/2000/svg" p-id="30952" width="200" height="200"><path d="M512 959.6c-247.3 0-447.8-200.5-447.8-447.8S264.7 63.9 512 63.9s447.8 200.5 447.8 447.8S759.3 959.6 512 959.6z m203.6-665c0-22.5-18.2-40.7-40.7-40.7-22.5 0-40.7 18.2-40.7 40.7v163.7L389.9 281.1S357.2 254 335.6 254c-25 0-54.3 21.1-54.3 47.2h-0.1v448.4h0.1c0 26.1 29.3 47.2 54.3 47.2 19.6 0 54.3-27.1 54.3-27.1l190-135.7-54.3-54.3-162.8 108.5V362.5L634.1 566v190c0 22.5 18.2 40.7 40.7 40.7 22.5 0 40.7-18.2 40.7-40.7V294.6z" p-id="30953"></path></svg>
