<svg t="1636189004420" class="icon" viewBox="0 0 1024 1024" version="1.1" xmlns="http://www.w3.org/2000/svg" p-id="25857" width="200" height="200"><path d="M512 64a448 448 0 1 1 0 896A448 448 0 0 1 512 64z m0 224c-10.88 0-20.48 6.592-26.048 18.112l-51.712 105.6a22.72 22.72 0 0 1-13.184 9.664l-115.648 16.96c-12.544 1.856-21.76 8.832-25.088 19.2-3.392 10.368-0.128 21.44 8.96 30.4l83.712 82.24c3.136 3.008 5.76 11.456 5.12 15.744l-19.84 116.096c-2.112 12.672 1.728 23.616 10.624 30.016a26.048 26.048 0 0 0 15.488 4.992 34.816 34.816 0 0 0 16.128-4.288l103.424-54.848a23.04 23.04 0 0 1 16.128 0l103.424 54.784c11.264 6.016 22.784 5.76 31.68-0.64 8.832-6.4 12.672-17.28 10.496-29.952l-19.712-116.16a23.04 23.04 0 0 1 5.056-15.744l83.712-82.24c9.088-8.96 12.352-20.032 8.96-30.4-3.328-10.368-12.48-17.344-25.088-19.2L602.88 421.376a22.72 22.72 0 0 1-13.184-9.6l-51.712-105.664C532.416 294.592 522.944 288 512 288z" p-id="25858"></path></svg>
