<svg t="1635840618892" class="icon" viewBox="0 0 1024 1024" version="1.1" xmlns="http://www.w3.org/2000/svg" p-id="17578" width="200" height="200"><path d="M920.52179 964.997953H153.495174c-28.153261-0.149751-50.915472-22.911963-50.915472-51.065224 0-28.303013 22.762211-51.065224 50.915472-51.065224h767.026616v102.130448zM307.140099 51.963732h204.410647v337.689383l-89.102077-53.461246c-8.086575-4.792044-18.269669-4.792044-26.356244 0l-89.102077 53.461246V51.963732zM946.129278 0.149751H153.495174C97.188652 0.299503 51.514478 46.123428 51.514478 102.42995v817.792337c0 56.456274 45.674174 102.280199 101.980696 102.280199h792.484352c14.076631 0 25.607488-11.530857 25.607488-25.757239V26.056742c0-14.376133-11.530857-25.90699-25.457736-25.906991z m0 0" p-id="17579" fill="#999999"></path></svg>