<svg t="1636199283394" class="icon" viewBox="0 0 1086 1024" version="1.1" xmlns="http://www.w3.org/2000/svg" p-id="32512" width="200" height="200"><path d="M1086.732506 543.231054a543.501452 543.501452 0 0 0-1086.732506 0v405.598098a40.55981 40.55981 0 0 0 25.417481 37.585424l62.462107 25.417481a156.020069 156.020069 0 0 0 58.406126 11.356747A160.346448 160.346448 0 0 0 228.757328 1000.47531a147.908107 147.908107 0 0 0 70.574069-114.378664V721.964616a157.91286 157.91286 0 0 0-157.642461-157.642461H81.11962v-21.631899a462.381833 462.381833 0 0 1 924.493266 0v21.631899h-62.732506A157.642461 157.642461 0 0 0 784.156324 722.505413v151.42329a104.103512 104.103512 0 0 0 0 12.97914 147.367309 147.367309 0 0 0 72.196462 113.567467 157.91286 157.91286 0 0 0 140.877739 11.627146l62.462108-25.417481a40.55981 40.55981 0 0 0 25.417481-37.585424v-9.463956a49.753367 49.753367 0 0 0 1.622392-11.086348z m-944.502773 102.751518a76.522841 76.522841 0 0 1 76.522842 76.522841v157.642461a67.058886 67.058886 0 0 1-32.447848 51.646158 74.900449 74.900449 0 0 1-67.599683 5.678374L81.11962 922.330077V645.982572z m861.760761 276.347505l-37.315025 15.142329a75.441246 75.441246 0 0 1-67.870082-5.678374 66.518088 66.518088 0 0 1-32.177449-51.375759 52.186955 52.186955 0 0 1 0-6.48957v-151.42329a76.522841 76.522841 0 0 1 76.522841-76.522841h61.110114z" p-id="32513" fill="#999999"></path><path d="M633.003433 647.334566a40.55981 40.55981 0 0 0-40.55981 40.559809v206.584632a40.55981 40.55981 0 0 0 81.11962 0v-206.584632a40.55981 40.55981 0 0 0-40.55981-40.559809zM467.519409 703.036705a40.55981 40.55981 0 0 0-40.55981 40.559809v124.113019a40.55981 40.55981 0 0 0 81.119619 0v-124.653816a40.55981 40.55981 0 0 0-40.559809-40.019012z" p-id="32514" ></path></svg>
