<svg t="1638282039173" class="icon" viewBox="0 0 1024 1024" version="1.1" xmlns="http://www.w3.org/2000/svg" p-id="2852" width="200" height="200"><path d="M733.9 429h-12.6V273.9c0-54.1-22.1-103.3-57.8-139-35.6-35.6-84.8-57.8-139-57.8H498c-54.1 0-103.3 22.1-139 57.8-35.6 35.6-57.8 84.8-57.8 139V429h-12.6c-52.7 0-95.4 42.7-95.4 95.4v328c0 52.7 42.7 95.4 95.4 95.4h445.2c52.7 0 95.4-42.7 95.4-95.4v-328c0.1-52.7-42.6-95.4-95.3-95.4z m-77.6 0h-290V273.9c0-36.2 14.8-69.1 38.7-93 23.9-23.9 56.8-38.7 93-38.7h26.5c36.2 0 69.1 14.8 93 38.7 23.9 23.9 38.7 56.8 38.7 93V429h0.1zM543.1 706.4v72.4c0 17.5-14.3 31.8-31.8 31.8s-31.8-14.3-31.8-31.8v-72.4c-18.9-11-31.8-31.3-31.8-54.8 0-35.1 28.5-63.6 63.6-63.6s63.6 28.5 63.6 63.6c0 23.5-12.9 43.8-31.8 54.8z" p-id="2853"></path></svg>
