<svg t="1635948526989" class="icon" viewBox="0 0 1025 1024" version="1.1" xmlns="http://www.w3.org/2000/svg" p-id="3116" width="200" height="200"><path d="M1014.64064 485.33504 843.9808 272.00512c-8.26368-10.32192-20.60288-16.01536-33.32096-16.01536-4.72064 0-9.49248 0.78848-14.12096 2.41664C779.43808 264.3968 768 280.53504 768 298.65984l0 128L426.67008 426.65984c-47.12448 0-85.32992 38.1952-85.32992 85.34016 0 47.12448 38.20544 85.32992 85.32992 85.32992L768 597.32992l0 127.98976c0 18.1248 11.43808 34.27328 28.53888 40.27392C801.16736 767.21152 805.9392 768 810.65984 768c12.71808 0 25.05728-5.70368 33.32096-16.01536l170.65984-213.34016C1027.1232 523.0592 1027.1232 500.92032 1014.64064 485.33504L1014.64064 485.33504zM597.34016 853.32992 256 853.31968c-0.22528 0-0.44032 0.01024-0.6656 0.01024-46.75584 0-84.66432-38.20544-84.66432-85.34016L170.67008 256l0.01024 0c0-0.22528-0.01024-0.45056-0.01024-0.6656 0-46.75584 38.20544-84.66432 85.32992-84.66432l341.34016 0c47.12448 0 85.31968-38.20544 85.31968-85.34016S644.46464 0 597.34016 0L170.67008 0C76.41088 0 0 76.41088 0 170.67008l0 682.65984C0 947.57888 76.41088 1024 170.67008 1024l426.67008 0c47.12448 0 85.31968-38.20544 85.31968-85.34016S644.46464 853.32992 597.34016 853.32992L597.34016 853.32992zM597.34016 853.32992" p-id="3117" fill="#999999"></path></svg>
