<svg t="1634999970633" class="icon" viewBox="0 0 1024 1024" version="1.1" xmlns="http://www.w3.org/2000/svg" p-id="11249" width="200" height="200"><path d="M828.252341 0h-498.985283a107.068437 107.068437 0 0 0-106.646908 106.646907v677.134095A107.068437 107.068437 0 0 0 329.267058 890.480601h498.985283a107.068437 107.068437 0 0 0 106.646908-106.646907V106.646907A107.068437 107.068437 0 0 0 828.252341 0z m-99.006689 677.977153l-150.169806-80.617474-151.487084 80.617474 29.032829-168.611711-122.454255-119.02933 170.666666-24.764845 74.241844-152.330143 75.295668 153.278584 170.666667 24.764845-122.454256 119.450859z" p-id="11250" fill="#ffffff"></path><path d="M828.094268 912.610888h-42.67984a61.859422 61.859422 0 0 1-47.422044 22.182978h-497.404548a62.280951 62.280951 0 0 1-62.333642-62.386333V195.80035a61.859422 61.859422 0 0 1 22.182978-47.422044v-42.679839A127.986827 127.986827 0 0 1 217.087578 46.842441 151.487084 151.487084 0 0 0 89.100751 195.747659v676.659874a151.487084 151.487084 0 0 0 151.487085 151.487085h498.352989a151.487084 151.487084 0 0 0 148.905218-127.986828 127.986827 127.986827 0 0 1-59.751775 16.650407z" p-id="11251" fill="#ffffff"></path></svg>
