<svg t="1632568865849" class="icon" viewBox="0 0 1024 1024" version="1.1" xmlns="http://www.w3.org/2000/svg" p-id="2418" width="200" height="200"><path d="M512 1024C229.216 1024 0 794.784 0 512S229.216 0 512 0s512 229.216 512 512-229.216 512-512 512z m0-102.4c226.208 0 409.6-183.392 409.6-409.6S738.208 102.4 512 102.4c-226.208 0-409.6 183.392-409.6 409.6S285.792 921.6 512 921.6z m-5.44-155.904c-63.36 0-120.672-37.632-149.408-97.728-9.472-19.52-3.872-44.32 13.312-56.288 19.136-13.568 44.256-5.664 54.56 16 15.52 32.448 46.752 52.48 81.536 52.48 34.368 0 66.592-20.928 81.76-53.312 10.016-21.664 34.976-29.76 54.336-16.64 17.344 11.744 23.104 36.416 13.92 56.256-28.48 60.992-86.048 99.168-150.048 99.168zM310.784 427.648c-18.048-9.248-25.728-31.744-18.08-50.976 8.128-20.48 30.624-30.08 49.76-20.224l87.968 44.576c12.256 6.112 20.192 18.944 20.992 33.216 0.832 13.984-5.504 27.52-16.832 35.456l-86.272 59.328c-6.016 4.096-12.768 6.272-19.84 6.272-13.408 0-25.504-7.616-32.032-19.872-9.632-18.112-4.576-41.248 12.032-52.64l30.432-20.832-28.128-14.304z m394.144 35.104c16.608 11.392 21.792 34.56 12.16 52.672-6.496 12.192-18.688 19.84-32.032 19.84-6.976 0-13.888-2.208-19.904-6.304l-86.048-59.2c-11.424-7.648-17.824-21.312-17.024-35.232 0.544-14.24 8.48-27.136 20.928-33.536l88.224-44.736c19.232-9.536 41.536-0.032 49.632 20.32 7.68 19.328-0.128 41.824-18.24 51.008l-28.128 14.304 30.464 20.864z" p-id="2419" ></path></svg>
