<svg t="1631951157424" class="icon" viewBox="0 0 1399 1024" version="1.1" xmlns="http://www.w3.org/2000/svg" p-id="13019" width="200" height="200"><path d="M1384.86016 461.76C1373.34016 442.88 1098.01216 0 699.54816 0S25.72416 442.88 14.20416 461.76a96.704 96.704 0 0 0 0 100.8c11.52 18.56 286.784 460.16 684.8 461.44h1.792c397.76 0 672.416-442.88 683.904-461.76a96.416 96.416 0 0 0 0.16-100.48zM701.02016 928h-1.472C349.82016 926.72 95.45216 512 95.45216 512S349.82016 96 699.54816 96s604.096 416 604.096 416-253.664 416-602.624 416z m-1.472-672a256 256 0 1 0 254.336 256 255.488 255.488 0 0 0-254.336-256z m0 416a160 160 0 1 1 158.976-160 159.52 159.52 0 0 1-158.976 160z" p-id="13020" ></path></svg>