<svg t="1634999996425" class="icon" viewBox="0 0 1024 1024" version="1.1" xmlns="http://www.w3.org/2000/svg" p-id="13431" width="200" height="200"><path d="M476.099765 993.882353c-46.923294 0-88.003765-36.080941-88.003765-90.202353v-60.144941c-170.104471 36.080941-205.312-72.161882-205.312-72.161883-29.334588-72.161882-70.384941-90.172235-70.384941-90.172235-52.796235-36.080941 5.842824-36.080941 5.842823-36.080941 58.669176 6.023529 93.876706 66.138353 93.876706 66.138353 52.796235 96.195765 140.769882 66.138353 175.977412 54.121412 5.872941-42.104471 23.491765-66.168471 41.080471-84.178824-134.927059-18.070588-275.727059-72.192-275.727059-306.688 0-66.168471 23.491765-126.283294 64.542117-168.387765-11.745882-24.033882-29.334588-84.178824 5.842824-174.381176 0 0 52.796235-18.040471 170.134588 66.138353 46.923294-12.047059 99.719529-18.040471 152.515765-18.040471 52.796235 0 105.592471 6.023529 152.515765 18.070589 111.435294-84.208941 164.261647-66.168471 164.261647-66.168471 35.177412 84.178824 11.745882 150.347294 5.842823 162.334118C910.185412 236.212706 933.647059 296.357647 933.647059 362.496c0 240.549647-140.8 294.671059-275.696941 306.688 23.461647 18.070588 41.050353 60.144941 41.050353 114.266353v120.259765c0 48.097882-41.050353 90.202353-88.003765 90.202353h-134.927059z" fill="#ffffff" p-id="13432"></path></svg>
