<svg t="1632367852869" class="icon" viewBox="0 0 1024 1024" version="1.1" xmlns="http://www.w3.org/2000/svg" p-id="17994" width="200" height="200"><path d="M735.129 609.161a29.887 29.887 0 0 1-20.431-8.039c-12.129-11.287-12.812-30.27-1.523-42.398l84.574-90.879c48.127-51.716 24.423-168.142-28.397-217.297l-1.776-1.653c-26.279-24.456-69.907-41.497-113.856-44.47-45.063-3.049-83.305 8.521-104.916 31.746L464.23 327.05c-11.288 12.129-30.27 12.812-42.399 1.524-12.129-11.288-12.812-30.27-1.524-42.399l84.574-90.879c33.982-36.517 89.708-55.01 152.889-50.734 57.916 3.918 114.246 26.502 150.683 60.412l1.776 1.653c36.437 33.908 63.006 88.472 71.072 145.957 8.799 62.71-5.646 119.62-39.628 156.137l-84.575 90.878c-5.91 6.349-13.93 9.562-21.969 9.562z" p-id="17995"></path><path d="M734.291 609.706a29.892 29.892 0 0 1-20.431-8.039L421.346 329.448c-12.129-11.288-12.811-30.27-1.524-42.399 11.288-12.129 30.27-12.812 42.399-1.524l292.515 272.22c12.129 11.287 12.812 30.27 1.523 42.398-5.908 6.35-13.928 9.563-21.968 9.563zM790.216 256.34a29.892 29.892 0 0 1-20.431-8.039c-12.129-11.287-12.812-30.27-1.523-42.399l75.324-80.938c11.287-12.127 30.27-12.812 42.398-1.523 12.129 11.287 12.812 30.27 1.523 42.399l-75.324 80.938c-5.909 6.349-13.927 9.562-21.967 9.562zM396.659 893.045c-5.846 0-11.767-0.2-17.76-0.605-57.916-3.919-114.246-26.503-150.684-60.413l-1.776-1.652c-36.436-33.908-63.005-88.472-71.071-145.957-8.799-62.711 5.645-119.621 39.628-156.138l84.573-90.878c11.288-12.128 30.27-12.812 42.399-1.523 12.129 11.288 12.811 30.271 1.524 42.399l-84.573 90.878c-21.613 23.225-30.409 62.197-24.133 106.926 6.121 43.623 26.249 85.915 52.529 110.371l1.776 1.653c26.28 24.457 69.908 41.498 113.857 44.472 45.063 3.048 83.304-8.522 104.917-31.746l84.574-90.879c11.285-12.129 30.27-12.813 42.398-1.523 12.129 11.287 12.812 30.27 1.523 42.398l-84.573 90.879c-30.757 33.052-79.336 51.337-135.128 51.338z" p-id="17996"></path><path d="M594.879 759.513a29.892 29.892 0 0 1-20.431-8.039L281.933 479.255c-12.129-11.288-12.812-30.27-1.524-42.399 11.287-12.128 30.271-12.811 42.399-1.524L615.324 707.55c12.129 11.288 12.812 30.271 1.523 42.399-5.909 6.351-13.928 9.564-21.968 9.564zM171.116 921.599a29.892 29.892 0 0 1-20.431-8.039c-12.129-11.287-12.812-30.27-1.524-42.398l75.323-80.938c11.287-12.129 30.271-12.813 42.399-1.523 12.129 11.287 12.812 30.27 1.524 42.398l-75.323 80.938c-5.909 6.349-13.929 9.562-21.968 9.562z" p-id="17997"></path><path d="M389.723 556.667a29.896 29.896 0 0 1-20.431-8.038c-12.129-11.288-12.812-30.271-1.524-42.399l70.036-75.258c11.287-12.129 30.27-12.811 42.399-1.524 12.129 11.287 12.812 30.27 1.524 42.399l-70.036 75.258c-5.909 6.349-13.929 9.562-21.968 9.562zM528.169 685.509a29.892 29.892 0 0 1-20.431-8.039c-12.129-11.287-12.811-30.271-1.523-42.398l70.039-75.259c11.287-12.129 30.269-12.813 42.398-1.523 12.129 11.287 12.812 30.271 1.523 42.399l-70.039 75.258c-5.908 6.349-13.927 9.562-21.967 9.562z" p-id="17998"></path></svg>