<svg t="1632367502510" class="icon" viewBox="0 0 1024 1024" version="1.1" xmlns="http://www.w3.org/2000/svg" p-id="14573" width="200" height="200"><path d="M285.866667 661.333333c-10.666667 55.466667-25.6 108.8-44.8 160 42.666667 21.333333 91.733333 32 142.933333 32s100.266667-10.666667 142.933333-32c-19.2-51.2-34.133333-104.533333-44.8-160h-196.266666zM183.466667 789.333333c14.933333-40.533333 27.733333-83.2 36.266666-128H76.8c25.6 51.2 61.866667 93.866667 106.666667 128zM183.466667 234.666667c-44.8 32-83.2 76.8-106.666667 128h142.933333c-8.533333-44.8-19.2-85.333333-36.266666-128zM584.533333 234.666667c-14.933333 40.533333-27.733333 83.2-36.266666 128h142.933333c-25.6-51.2-61.866667-93.866667-106.666667-128zM53.333333 426.666667c-6.4 27.733333-10.666667 55.466667-10.666666 85.333333s4.266667 57.6 10.666666 85.333333h177.066667c2.133333-27.733333 4.266667-55.466667 4.266667-85.333333s-2.133333-57.6-4.266667-85.333333H53.333333zM686.933333 426.666667h-149.333333c-2.133333 27.733333-4.266667 55.466667-4.266667 85.333333s2.133333 57.6 4.266667 85.333333h4.266667c19.2-76.8 74.666667-138.666667 145.066666-170.666666zM241.066667 202.666667c19.2 51.2 34.133333 104.533333 44.8 160h196.266666c10.666667-55.466667 25.6-108.8 44.8-160-42.666667-21.333333-91.733333-32-142.933333-32s-100.266667 10.666667-142.933333 32zM473.6 597.333333c-2.133333-27.733333-4.266667-55.466667-4.266667-85.333333s2.133333-57.6 4.266667-85.333333h-179.2c2.133333 27.733333 4.266667 55.466667 4.266667 85.333333s-2.133333 57.6-4.266667 85.333333h179.2zM789.333333 469.333333c-106.666667 0-192 85.333333-192 192s85.333333 192 192 192 192-85.333333 192-192-85.333333-192-192-192z m64 149.333334c-14.933333 0-29.866667-8.533333-36.266666-21.333334H746.666667v42.666667h106.666666c12.8 0 21.333333 8.533333 21.333334 21.333333v85.333334c0 12.8-8.533333 21.333333-21.333334 21.333333h-91.733333c-6.4 12.8-21.333333 21.333333-36.266667 21.333333-23.466667 0-42.666667-19.2-42.666666-42.666666s19.2-42.666667 42.666666-42.666667c14.933333 0 29.866667 8.533333 36.266667 21.333333H832v-42.666666h-106.666667c-12.8 0-21.333333-8.533333-21.333333-21.333334v-85.333333c0-12.8 8.533333-21.333333 21.333333-21.333333h91.733334c6.4-12.8 21.333333-21.333333 36.266666-21.333334 23.466667 0 42.666667 19.2 42.666667 42.666667s-19.2 42.666667-42.666667 42.666667z" p-id="14574"></path></svg>