<svg t="1632367813728" class="icon" viewBox="0 0 1024 1024" version="1.1" xmlns="http://www.w3.org/2000/svg" p-id="17147" width="200" height="200"><path d="M928 832a32 32 0 1 1 0 64h-832a32 32 0 1 1 0-64h832zM832 128a128 128 0 0 1 128 128v384a128 128 0 0 1-128 128H192a128 128 0 0 1-128-128V256a128 128 0 0 1 128-128h640z m0 64H192a64 64 0 0 0-63.552 56.512L128 256v384a64 64 0 0 0 56.512 63.552L192 704h640a64 64 0 0 0 63.552-56.512L896 640V256a64 64 0 0 0-56.512-63.552L832 192zM256 544h448a32 32 0 1 1 0 64H256a32 32 0 0 1 0-64z m0-128h128a32 32 0 0 1 0 64H256a32 32 0 0 1 0-64z m0-128h320a32 32 0 0 1 0 64H256a32 32 0 0 1 0-64z" fill="#727272" p-id="17148"></path></svg>