<svg t="1644654345688" class="icon" viewBox="0 0 1024 1024" version="1.1" xmlns="http://www.w3.org/2000/svg" p-id="19876" width="200" height="200"><path d="M873.251136 578.557882c0 0 30.612205-8.068769 31.612998-74.242911 0.73678-54.472636-28.877701-103.032608-71.226205-110.630656-65.666582-11.752672-102.437044 4.369517-80.648808-33.243125 31.912827-55.087643 58.367339-77.050864 56.735166-148.154271C796.656667 57.183374 676.341441 63.639412 634.800325 63.639412c-41.543162 4.878101 6.348592 83.525322-156.419516 196.995653-58.366316 40.700981-105.102756 149.172461-156.995637 172.189687-51.876508 22.965038-147.015332 49.367361-188.558493 59.875692-41.48995 10.577916 9.29776 409.096329 50.806129 398.553205l0 0.192382c41.508369-7.684006 222.187405 19.561521 286.73142 31.595602 75.453483 14.016225 233.537917 64.366983 300.396651 12.332886 32.578999-25.384134 38.753629-72.542176 38.753629-72.542176s42.209334-26.840298 52.244898-71.489194c9.92914-44.243667-1.983167-61.138452-1.983167-61.138452s40.946574-9.420557 45.436842-76.454276C909.40659 590.663594 873.251136 578.557882 873.251136 578.557882z" p-id="19877" fill="#ffffff"></path></svg>
