<svg t="1632303397671" class="icon" viewBox="0 0 1024 1024" version="1.1" xmlns="http://www.w3.org/2000/svg" p-id="6794" width="200" height="200"><path d="M917.76 570.88l-241.493333 280.32a42.666667 42.666667 0 0 1-75.008-27.818667v-151.893333H314.88a42.666667 42.666667 0 0 1-42.666667-42.666667V395.093333a42.666667 42.666667 0 0 1 42.666667-42.666666h286.464V203.264a42.666667 42.666667 0 0 1 75.178667-27.648L918.186667 459.946667a85.333333 85.333333 0 0 1-0.341334 110.933333zM512.341333 808.533333V896a42.666667 42.666667 0 0 1-42.666666 42.666667H85.333333a85.333333 85.333333 0 0 1-85.333333-85.333334V170.666667a85.333333 85.333333 0 0 1 85.333333-85.333334h384.341334a42.666667 42.666667 0 0 1 42.666666 42.666667v86.528a42.666667 42.666667 0 0 1-42.666666 42.666667H215.808a42.666667 42.666667 0 0 0-42.666667 42.666666v423.338667a42.666667 42.666667 0 0 0 42.666667 42.666667h253.866667a42.666667 42.666667 0 0 1 42.666666 42.666666z" p-id="6795"></path></svg>