<svg t="1632134931351" class="icon" viewBox="0 0 1024 1024" version="1.1" xmlns="http://www.w3.org/2000/svg" p-id="6861" width="200" height="200"><path d="M484.032 477.76c-0.362667-21.013333-1.386667-38.976-2.517333-56.938667-0.725333-11.584-1.173333-23.168-3.221334-34.602666-1.834667-10.24-4.245333-20.352-8.426666-29.952-1.088-2.496-1.984-5.077333-2.752-7.701334-1.706667-5.824 0.64-9.258667 6.677333-10.005333 1.813333-0.213333 3.562667 0.128 5.290667 0.618667 4.181333 1.194667 8.448 2.069333 12.714666 2.858666 6.997333 1.301333 13.824 0.341333 20.437334-1.834666 11.882667-3.925333 24.021333-6.336 36.48-7.402667 4.330667-0.362667 8.554667-1.557333 12.650666-3.072 6.890667-2.538667 10.218667-7.274667 10.133334-14.592-0.128-12.202667 0.341333-24.405333-0.469334-36.586667-0.426667-6.570667-3.946667-9.28-10.474666-7.957333-8.938667 1.813333-17.834667 3.797333-26.773334 5.610667-6.592 1.322667-13.141333 3.093333-19.946666 2.858666-1.194667-0.042667-2.389333 0.021333-3.584-0.085333-9.792-0.917333-10.752-6.08-8.533334-14.122667 0.213333-0.789333 0.746667-1.066667 1.450667-1.258666 15.146667-4.245333 29.248-11.285333 44.202667-16.106667 3.733333-1.194667 7.445333-2.453333 11.136-3.754667 2.666667-0.96 5.056-2.389333 7.210666-4.288 5.269333-4.608 7.146667-10.090667 5.930667-17.152-1.664-9.557333-2.56-19.264-3.754667-28.906666-0.832-6.677333-3.605333-11.904-9.898666-15.104-3.413333-1.728-6.528-4.053333-8.853334-7.253334-1.834667-2.517333-3.136-5.226667-3.456-8.405333-0.213333-1.984 0.426667-2.837333 2.474667-2.837333 2.602667 0 5.12 0.448 7.552 1.173333 7.210667 2.090667 14.4 4.181333 21.525333 6.549333 7.232 2.389333 13.717333 6.08 18.346667 12.416 0.874667 1.216 1.344 2.453333 1.536 3.968 1.472 11.413333 2.965333 22.826667 4.608 34.218667 0.874667 6.122667 3.690667 8.042667 9.962667 7.402667 12.032-1.216 23.978667-3.242667 36.117333-3.605334 8.64-0.256 16.64 1.834667 23.978667 6.08 6.933333 3.989333 7.488 10.730667 1.941333 16.469334-2.325333 2.389333-5.162667 3.882667-8.234667 4.992-10.453333 3.818667-21.44 5.525333-32.213333 8.064-7.296 1.728-14.634667 3.285333-21.909333 5.098666-4.714667 1.173333-6.208 3.456-5.504 8.256 1.472 10.112 3.008 20.224 4.672 30.336 0.981333 5.994667 3.968 8.149333 10.026666 7.424 17.770667-2.090667 35.562667-4.202667 53.333334-6.336 18.581333-2.24 35.029333 3.349333 50.133333 13.717334 3.434667 2.346667 5.696 5.845333 7.488 9.6 1.728 3.626667 1.728 7.445333 0.021333 10.922666-6.890667 13.909333-7.872 28.970667-9.152 44.032-1.898667 22.250667-3.882667 44.501333-6.421333 66.688-1.514667 13.184-4.245333 26.069333-7.381333 38.912-0.917333 3.754667-2.282667 7.381333-4.885334 10.304-4.394667 4.949333-9.941333 7.274667-16.618666 6.784-5.674667-0.426667-8.554667-3.989333-10.154667-9.024-1.621333-5.184-0.853333-10.389333 0.256-15.445333 4.181333-19.178667 5.354667-38.634667 6.016-58.176 0.576-16.618667 1.877333-33.194667 3.242667-49.770667 0.810667-9.834667 1.770667-19.712 1.322666-29.610666-0.106667-2.346667-1.258667-4.181333-2.474666-6.058667-0.746667-1.152-1.856-0.768-2.752-0.682667-8.256 0.618667-16.512 1.088-24.704 2.154667-12.586667 1.664-25.216 3.136-37.824 4.693333-1.216 0.149333-2.368-0.042667-3.541334-0.234666-2.965333-0.490667-5.376 1.237333-5.504 4.245333-0.192 4.437333-0.192 8.874667 0.021334 13.312 0.149333 2.986667 2.453333 4.757333 5.781333 5.034667 4.928 0.426667 9.877333 0.384 14.826667 0.533333 6.037333 0.170667 11.413333 1.813333 15.018666 7.232 3.370667 5.077333 2.410667 8.96-3.008 11.584-2.453333 1.194667-5.098667 1.941333-7.573333 3.008-2.645333 1.152-5.056 2.922667-7.594667 4.373333-5.376 3.114667-10.474667 6.72-15.146666 10.901334-4.16 3.712-6.442667 8.277333-6.101334 14.016 0.362667 5.930667 4.629333 10.304 10.602667 10.261333 6.336-0.021333 12.501333-1.664 18.752-2.346667 5.077333-0.554667 10.133333-1.301333 15.296-0.853333 3.562667 0.32 6.848 1.408 9.898667 3.178667 4.650667 2.709333 5.568 8.213333 1.856 12.138666-5.888 6.208-13.141333 10.005333-21.589334 11.306667-7.061333 1.088-14.250667 1.493333-21.162666 3.541333-1.066667 0.32-2.133333 0.64-3.157334 1.002667-7.936 2.901333-11.882667 8.149333-11.925333 16.618667-0.064 9.984-0.234667 19.946667-1.088 29.909333-0.597333 7.061333-1.088 14.122667-4.522667 20.586667-1.770667 3.349333-4.224 5.610667-8.149333 6.293333-4.736 0.810667-8.128-1.301333-10.88-4.650667-3.029333-3.648-3.370667-8.298667-3.989333-12.778666-1.386667-9.877333-2.688-19.754667-4.096-29.632-0.405333-2.88-1.194667-5.674667-2.496-8.298667-0.298667-0.597333-0.725333-1.173333-0.384-1.92 0.448-0.96-0.234667-1.536-0.896-1.834667-3.306667-1.429333-6.464-3.178667-10.432-2.133333-5.781333 1.514667-11.52 3.050667-17.002667 5.525333-1.472 0.661333-2.986667 1.301333-4.608 1.493334-2.965333 0.362667-5.845333-1.301333-6.549333-4.138667-0.896-3.626667-1.728-7.317333-1.706667-11.093333 0.021333-4.330667 1.472-6.442667 5.610667-7.829334 7.04-2.368 14.250667-4.138667 21.482666-5.738666 4.181333-0.917333 8.277333-2.090667 12.010667-4.245334 4.757333-2.730667 7.338667-6.698667 7.125333-12.352-0.170667-4.522667-0.533333-9.024-1.216-13.504-0.853333-5.525333-4.522667-8.554667-10.176-8.256-5.205333 0.277333-10.432 0.981333-15.552-0.128-6.570667-1.429333-12.842667-3.648-16.426666-10.112-0.661333-1.194667-0.725333-2.026667 0.042666-3.221333 2.496-3.946667 6.165333-6.058667 10.56-7.04 5.76-1.28 11.669333-1.557333 17.450667-2.56 7.658667-1.322667 12.949333-5.461333 14.677333-13.354667 0.896-4.074667 1.792-8.170667 2.474667-12.288 0.981333-6.016-2.517333-9.130667-8.298667-7.274666-9.28 2.965333-18.944 4.266667-28.352 6.72-7.424 1.941333-14.613333 4.586667-21.866666 7.104-1.28 0.448-1.066667 1.642667-1.237334 2.581333-1.045333 5.632-1.258667 11.349333-1.6 17.066667-0.874667 15.04-0.106667 29.994667 2.197334 44.906666 1.386667 9.024 1.6 18.176 1.856 27.306667 0.426667 14.848 0.469333 29.696 0.554666 44.544 0 1.664 0.661333 3.328 0.832 5.013333 0.341333 3.370667-0.704 6.613333-1.557333 9.770667-1.066667 3.968-5.269333 6.165333-9.557333 5.482667-1.770667-0.277333-3.456-0.896-5.056-1.728-2.261333-1.173333-4.288-2.730667-6.784-3.477334-0.917333-0.277333-1.856-1.045333-2.389334-1.856-2.602667-3.925333-6.570667-6.378667-9.984-9.450666-1.237333-1.130667-1.813333-2.24-1.792-3.946667 0.064-8.341333 0.277333-16.618667 0.042667-21.888z" p-id="6862" fill="#51b829"></path><path d="M663.872 630.805333c-0.426667-13.376-0.213333-26.794667-1.813333-40.106666-0.192-1.514667-0.426667-3.050667-0.832-4.522667-1.749333-6.506667-5.184-9.173333-11.861334-8.661333-9.685333 0.746667-19.349333 1.813333-29.034666 2.709333-8.32 0.768-16.64 1.429333-24.96 2.304-11.285333 1.173333-22.464 3.072-33.642667 4.928-9.92 1.664-19.818667 3.413333-29.738667 5.098667-1.344 0.234667-2.709333 0.170667-4.074666 0.32-2.282667 0.234667-4.096 1.194667-4.885334 3.498666-0.725333 2.176 0.362667 3.690667 1.834667 5.184 1.813333 1.834667 4.181333 3.221333 4.650667 6.165334 0.149333 0.917333 1.664 0.576 2.432 1.450666 10.858667 12.544 21.290667 25.386667 28.842666 40.256 4.181333 8.192 8.106667 16.554667 10.261334 25.578667 0.576 2.410667 0.981333 4.821333 0.042666 7.296-2.154667 5.717333-7.445333 8.661333-13.461333 6.357333-13.397333-5.162667-25.109333-12.48-29.994667-27.157333-3.989333-11.968-8-23.914667-11.904-35.925333-1.237333-3.818667-1.770667-7.786667-1.685333-11.861334 0.106667-4.522667 0.021333-9.045333 0-13.568-0.021333-2.112-0.789333-3.84-2.794667-4.8-1.834667-0.874667-3.477333-0.426667-4.949333 0.896-0.384 0.341333-0.746667 0.682667-1.322667 0.682667-4.501333-0.064-8.682667 1.621333-13.034666 2.432-1.045333 0.192-2.133333 0.768-3.136-0.192-0.128-0.128-0.533333-0.149333-0.682667-0.042667-5.824 3.754667-12.736 3.968-19.136 5.802667-11.136 3.221333-22.314667 6.293333-33.024 10.816a129.642667 129.642667 0 0 1-9.941333 3.712c-1.472 0.490667-2.986667 1.962667-4.714667 0.298667-0.362667-0.362667-0.704 0.256-0.981333 0.512-3.349333 2.88-7.146667 3.925333-11.498667 2.901333-0.384-0.085333-0.874667-0.064-1.194667 0.106667-5.354667 3.029333-10.965333 1.877333-16.32 0.490666-4.138667-1.066667-6.421333-4.949333-6.229333-9.28 0.149333-3.328-0.64-6.570667-0.576-9.898666 0.085333-3.925333 1.130667-5.269333 4.949333-6.058667 21.034667-4.373333 41.728-10.154667 62.592-15.274667 22.933333-5.632 46.08-10.304 69.312-14.528 15.338667-2.794667 30.485333-6.634667 45.738667-9.856 13.290667-2.794667 26.752-4.309333 40.277333-5.44 11.733333-0.981333 23.296-3.221333 34.88-5.269333 4.309333-0.768 7.168-3.648 10.026667-6.464 0.597333-0.597333-0.106667-2.389333 0.042667-3.605333 0.277333-2.389333-0.704-3.562667-2.602667-5.248-3.477333-3.114667-7.978667-5.226667-10.304-9.6-0.469333-0.917333-1.856-0.874667-2.453333-1.941334-3.456-6.101333-1.578667-10.24 5.205333-11.882666 4.352-1.066667 8.682667-0.085333 12.928 0.746666 9.792 1.92 19.349333 4.842667 28.949333 7.488 1.216 0.341333 2.368 0.938667 3.584 1.365334 3.114667 1.130667 5.226667 3.029333 5.461334 6.613333 0.128 1.962667 0.896 3.818667 1.770666 5.589333 2.432 4.949333 5.653333 6.549333 11.157334 6.101334 13.589333-1.152 27.157333-2.517333 40.789333-3.349334 9.344-0.576 18.688-1.664 28.010667-2.624 7.808-0.810667 15.68-0.746667 23.488-1.322666 4.416-0.32 8.853333-0.682667 13.269333-0.853334 14.698667-0.533333 22.613333 5.354667 27.178667 19.989334 0.768 2.496-0.042667 4.757333-1.898667 6.528-3.84 3.669333-8.341333 5.461333-13.76 4.714666-5.312-0.725333-10.688-1.130667-16-1.877333-8.832-1.237333-17.685333-1.024-26.56-0.469333-12.501333 0.768-25.024 1.536-37.333333 4.117333-3.413333 0.725333-6.890667 1.386667-10.154667 2.581333-8.426667 3.093333-16.981333 5.504-25.941333 6.613334-6.058667 0.746667-8.149333 3.285333-7.808 9.28 0.661333 11.584-1.386667 22.954667-2.218667 34.410666-0.618667 8.597333-1.024 17.194667-1.002667 25.813334 0.021333 22.613333-0.32 45.248 0.341334 67.84 0.704 23.978667-2.24 47.466667-6.976 70.848-2.816 13.888-4.501333 27.925333-6.485334 41.941333-0.768 5.482667-1.813333 10.986667-3.733333 16.170667-2.346667 6.293333-5.056 12.416-11.306667 16.085333-7.850667 4.629333-15.424 4.138667-22.848-0.768-4.16-2.752-7.637333-6.272-10.730666-10.176-2.218667-2.816-4.48-5.610667-6.528-8.533333-6.912-9.813333-14.549333-18.944-23.68-26.752-4.202667-3.584-7.317333-8-10.005334-12.821334-1.770667-3.178667-0.192-5.141333 1.450667-7.296 1.749333-2.261333 4.053333-2.986667 6.826667-2.176 1.941333 0.576 3.498667 1.792 4.949333 3.093334 3.477333 3.136 6.890667 6.378667 10.389333 9.493333 3.456 3.072 7.125333 5.824 11.370667 7.744 2.496 1.130667 5.077333 1.941333 7.872 1.984 7.082667 0.064 11.584-3.221333 13.013333-10.133333 2.688-13.098667 5.44-26.197333 7.445334-39.445334 2.517333-16.725333 3.541333-33.557333 3.754666-50.474666 0.256-20.714667 1.216-41.429333 2.666667-62.101334 0.298667-4.842667 0-9.728 0-14.592z" p-id="6863" fill="#51b829"></path><path d="M293.205333 477.973333c-7.04 0.533333-12.48 1.002667-17.92 1.344-8.384 0.512-16.448-1.258667-24.362666-3.712-1.792-0.554667-3.242667-1.856-5.376-2.133333-2.282667-0.298667-4.565333-1.984-4.650667-4.778667-0.085333-2.688 1.749333-4.330667 4.074667-5.354666 4.074667-1.813333 8.384-2.88 12.629333-4.096 7.872-2.24 15.786667-4.330667 23.658667-6.485334 10.645333-2.901333 19.157333-9.130667 26.453333-17.173333 5.205333-5.717333 7.68-12.522667 8.213333-20.202667 1.322667-19.072 1.237333-38.186667 1.642667-57.28 0.362667-17.642667 1.173333-35.285333 2.794667-52.864 0.64-6.954667 1.408-13.909333 1.28-20.928-0.149333-7.829333-2.730667-13.930667-10.581334-16.981333-2.922667-1.130667-5.632-2.837333-8.512-4.117333-3.882667-1.728-7.104-4.309333-10.048-7.36-3.818667-3.946667-3.776-6.634667-2.112-10.453334 1.386667-3.178667 4.928-4.096 8.277334-4.074666 4.288 0 8.448 0.981333 12.544 2.261333 7.893333 2.453333 15.765333 4.992 23.658666 7.424 7.872 2.432 13.397333 7.381333 17.109334 14.741333 5.205333 10.304 6.570667 20.842667 3.178666 31.957334-5.226667 17.130667-6.954667 34.709333-6.549333 52.565333 0.32 14.506667 0.277333 29.013333 0.533333 43.498667 0.085333 5.376 0.277333 10.752 0.874667 16.085333 0.96 8.405333 3.008 8.426667 10.752 7.573333 1.578667-0.170667 3.157333-0.746667 4.650667-1.365333 10.837333-4.629333 22.378667-5.866667 33.941333-6.848 5.866667-0.512 11.733333-0.832 17.6-1.109333 4.8-0.213333 8.554667 2.005333 11.477333 5.674666 2.624 3.306667 2.752 6.101333 0.448 9.642667-2.88 4.437333-6.912 7.744-11.136 10.816-12.8 9.28-26.794667 16.021333-41.962666 20.48-7.765333 2.282667-15.402667 5.013333-23.061334 7.637333-7.210667 2.474667-9.429333 5.44-9.173333 13.12 0.597333 18.773333 0.789333 37.525333 0.405333 56.298667-0.362667 17.642667-1.386667 35.264-2.304 52.906667-0.682667 13.12-0.874667 26.261333-1.152 39.381333-0.256 12.629333-0.384 25.258667-0.448 37.866667-0.106667 17.408 0.896 34.773333 1.706667 52.16 0.746667 15.850667 1.514667 31.701333 1.109333 47.573333-0.192 7.424-1.706667 14.741333-3.968 21.824-1.6 5.077333-5.013333 8.853333-9.365333 11.797333-2.944 1.984-6.229333 2.112-9.6 1.706667-1.557333-0.192-2.304-1.301333-2.986667-2.517333-3.072-5.461333-4.202667-11.498667-5.098666-17.578667-0.938667-6.336-1.152-12.736-1.152-19.136 0.085333-33.109333-0.149333-66.218667 0.256-99.306667 0.362667-28.672 0.405333-57.322667 0.234666-85.994666-0.106667-18.602667-0.576-37.184-0.96-55.786667-0.085333-4.352-0.618667-8.682667-0.768-13.013333-0.256-6.549333-1.216-12.992-2.730666-19.349334-0.192-0.832-0.277333-1.728-1.194667-2.048-4.586667-1.578667-8.597333-5.12-12.330667-4.288zM764.906667 207.893333c0.256 2.176-0.32 4.608-1.941334 6.912-1.429333 2.026667-0.512 4.629333-1.109333 6.933334-0.832 3.264-4.885333 6.954667-8.192 7.082666-3.264 0.128-6.464-0.042667-9.386667-1.664-0.64-0.362667-1.28-0.405333-1.962666-0.448-5.205333-0.298667-8.704-3.264-11.498667-7.36-1.536-2.218667-3.008-4.458667-5.76-5.461333-1.664-0.597333-3.178667-1.621333-3.648-3.584-0.149333-0.682667-0.682667-1.024-1.322667-0.917333-2.325333 0.362667-3.285333-1.408-4.48-2.794667-1.962667-2.304-3.690667-4.8-6.208-6.656-2.56-1.898667-4.330667-4.522667-5.717333-7.381333-0.618667-1.301333-1.322667-1.92-3.008-1.728-3.114667 0.362667-6.293333 0.362667-9.088-1.578667-1.066667-0.746667-2.304-1.066667-3.626667-0.938667-0.085333 0-0.192 0.021333-0.256 0-4.778667-2.474667-11.626667-1.194667-13.930666-8.298666-0.810667-2.496-2.432-4.906667-4.202667-7.104-1.045333-1.28-0.213333-3.306667-0.341333-4.970667-0.170667-1.984 1.130667-2.666667 2.517333-3.797333 1.514667-1.237333 3.328-1.749333 4.736-2.922667 3.306667-2.773333 7.402667-2.133333 11.157333-2.986667 0.234667-0.064 0.554667-0.085333 0.768 0.021334 3.52 1.877333 7.36 1.536 11.157334 1.642666 1.642667 0.042667 2.666667 1.429333 3.584 2.645334 0.469333 0.618667 0.874667 1.642667 1.514666 1.621333 2.88-0.106667 5.376 1.450667 8.085334 1.728 2.410667 0.256 4.437333 0.874667 6.186666 2.496 0.64 0.576 1.386667 1.173333 2.218667 1.109333 4.458667-0.341333 7.701333 2.56 11.477333 4.053334 7.36 2.901333 13.290667 7.936 19.52 12.501333 5.44 3.989333 9.941333 8.896 12.138667 15.552 0.597333 1.898667 0.597333 3.818667 0.618667 6.293333z" p-id="6864" fill="#51b829"></path></svg>
