<svg t="1632135020385" class="icon" viewBox="0 0 1024 1024" version="1.1" xmlns="http://www.w3.org/2000/svg" p-id="9309" width="200" height="200"><path d="M784.149333 874.474667c-12.714667 0-25.429333 0.256-38.144-0.128-4.885333-0.149333-9.813333-0.704-14.72-0.981334-0.085333 0-0.170667-0.042667-0.256-0.042666-8.64 1.429333-16.298667-3.562667-24.768-3.690667-8.106667-0.128-16.192-0.064-24.298666-0.170667-3.221333-0.042667-6.250667-0.512-9.152-1.962666-3.605333-1.792-7.637333-1.877333-11.477334-2.218667-8.938667-0.789333-17.749333-2.346667-26.581333-3.754667-1.322667-0.213333-2.602667-0.810667-3.84-1.408-1.493333-0.725333-3.029333-1.173333-4.650667-1.344-7.381333-0.746667-14.293333-3.029333-20.970666-6.122666-1.877333-0.874667-3.989333-0.853333-6.016-1.088-2.837333-0.341333-5.376-1.685333-8.064-2.346667-6.314667-1.557333-11.818667-4.693333-17.450667-7.701333-0.789333-0.426667-1.813333-0.469333-2.730667-0.597334-2.154667-0.277333-4.074667-0.789333-5.674666-2.517333-1.706667-1.834667-4.288-2.474667-6.464-3.477333-5.184-2.389333-10.005333-5.376-14.848-8.341334-4.181333-2.56-8.149333-5.546667-12.010667-8.576-1.493333-1.173333-3.093333-2.090667-4.693333-3.050666-4.586667-2.773333-7.957333-6.890667-11.541334-10.752-1.984-2.133333-3.818667-4.352-6.186666-6.08-0.832-0.618667-1.621333-1.28-2.069334-2.24-2.282667-4.8-5.76-8.832-8.426666-13.376-0.384-0.661333-0.768-1.344-0.981334-2.069334-0.768-2.538667-1.664-4.992-3.392-7.082666-3.52-4.288-4.544-9.813333-7.125333-14.592-0.618667-1.130667-1.088-2.346667-2.218667-3.072-3.669333-2.325333-5.226667-5.909333-6.037333-9.962667-1.088-5.418667-1.002667-11.050667-3.285333-16.234667a3.562667 3.562667 0 0 1-0.277334-1.749333c0.64-5.546667-0.661333-10.816-2.005333-16.128-0.597333-2.389333-0.362667-4.928-0.298667-7.402667 0.298667-8.874667 0.938667-17.706667 1.813334-26.538666 0.192-1.877333 0.384-3.776-0.298667-5.568-2.837333-7.488-2.368-15.082667-0.704-22.677334 0.981333-4.416 1.194667-8.768 0.149333-13.162666-0.554667-2.368-0.597333-4.757333 0.448-7.018667 0.661333-1.450667 0.469333-2.794667-0.149333-4.181333-2.005333-4.394667-2.112-9.002667-1.877333-13.76 0.405333-8.170667 0.725333-16.362667-1.130667-24.448-0.32-1.450667-0.426667-2.858667-0.042667-4.309334 1.493333-5.76 1.578667-11.562667 1.152-17.514666-0.384-5.248 0.064-10.56 0.149334-15.850667 0.021333-1.877333 0.149333-3.754667 0.064-5.632-0.106667-2.816 0.192-5.333333 2.410666-7.488 1.621333-1.557333 1.408-3.925333 1.621334-6.037333 0.469333-4.906667 1.045333-9.813333 1.578666-14.698667 0.128-1.258667 0.32-2.538667 0.384-3.818667 0.149333-2.901333 0.832-5.546667 2.88-7.744 0.512-0.533333 1.066667-1.237333 1.173334-1.92 0.810667-4.778667 2.261333-9.429333 3.285333-14.144 0.682667-3.157333 1.130667-6.357333 2.346667-9.386666 1.408-3.498667 1.792-7.274667 2.816-10.88 1.258667-4.394667 3.52-8.533333 2.922666-13.376-0.170667-1.322667 0.789333-2.602667 1.770667-3.584 1.92-1.877333 2.709333-4.181333 3.2-6.784 0.981333-5.248 1.685333-10.645333 4.522667-15.381334 0.298667-0.490667 0.490667-1.130667 0.533333-1.706666 0.384-5.397333 2.410667-10.368 3.797333-15.509334 1.344-5.013333 3.285333-9.877333 5.248-14.613333 1.92-4.629333-3.434667-12.650667-7.957333-12.373333-7.168 0.426667-14.72-0.704-21.162667 3.392-3.584 2.282667-7.637333 3.584-11.136 5.973333-0.896 0.618667-1.962667 1.045333-3.008 1.365333-1.6 0.490667-3.093333 1.194667-4.117333 2.474667-2.069333 2.602667-4.48 4.522667-7.744 5.418667-1.301333 0.362667-2.389333 1.514667-2.901333 2.773333-1.194667 2.944-3.797333 5.034667-4.672 8.192-0.362667 1.322667-1.344 1.749333-2.496 0.576-1.664-1.706667-3.178667-1.365333-4.906667 0.042667-2.026667 1.642667-3.754667 3.456-4.949333 5.781333-1.493333 2.922667-4.373333 4.501333-6.506667 6.805333-1.066667 1.173333-1.941333 2.282667-2.154667 3.925334-0.384 2.88-2.56 4.544-4.736 6.058666-1.685333 1.173333-2.88 2.496-3.285333 4.629334-0.384 1.962667-1.92 3.434667-3.178667 4.864-4.672 5.333333-8.874667 11.008-12.245333 17.194666-3.541333 6.485333-7.850667 12.501333-11.306667 18.986667-1.6 2.986667-2.986667 6.186667-3.776 9.450667-1.002667 4.202667-4.373333 7.125333-5.397333 11.221333-0.170667 0.661333-0.64 1.216-0.810667 1.877333-0.874667 3.349333-2.154667 6.208-5.397333 8.170667-1.792 1.088-2.666667 3.456-2.922667 5.781333-0.213333 2.069333-0.810667 4.010667-2.133333 5.674667-0.426667 0.512-0.768 1.152-0.96 1.792-2.453333 8.042667-7.381333 15.061333-9.216 23.381333-1.386667 6.250667-5.184 11.584-7.701333 17.408-1.258667 2.88-1.877333 5.866667-0.597334 8.682667 1.984 4.373333 0.768 8.32-2.282666 10.965333-5.461333 4.736-6.634667 11.285333-8.874667 17.450667-0.405333 1.130667-0.618667 2.368-1.258667 3.349333-2.069333 3.093333-2.496 6.485333-2.176 10.048 0.149333 1.834667-0.576 3.306667-1.621333 4.714667-2.410667 3.285333-5.056 6.442667-6.165333 10.517333-0.448 1.6-2.026667 2.496-2.858667 3.882667-2.794667 4.650667-5.418667 9.365333-7.872 14.229333-4.48 8.896-8.106667 18.432-15.744 25.408-1.045333 0.96-1.194667 2.432-1.621333 3.712-1.28 3.733333-2.730667 7.274667-6.314667 9.578667-1.941333 1.258667-3.050667 3.477333-3.776 5.653333-0.576 1.749333-1.514667 2.944-3.136 3.818667-2.752 1.493333-4.352 3.818667-4.330667 7.018667 0 1.749333-0.810667 2.922667-2.218666 3.776-1.109333 0.661333-1.92 1.706667-2.922667 2.453333-4.821333 3.52-7.808 8.725333-11.968 12.821333-1.344 1.322667-2.666667 2.645333-4.117333 3.818667-3.370667 2.752-4.736 7.04-7.829334 10.026667-0.981333 0.938667-1.813333 1.984-3.050666 2.645333-0.746667 0.384-1.621333 0.896-1.962667 1.578667-2.24 4.608-6.954667 6.912-9.962667 10.837333-1.344 1.728-2.624 3.541333-4.16 5.162667-2.986667 3.178667-6.506667 5.717333-9.770666 8.533333-2.197333 1.898667-3.818667 4.288-6.08 6.165333-6.570667 5.504-12.266667 12.010667-19.2 17.130667-0.533333 0.405333-1.066667 0.874667-1.450667 1.429333-4.373333 6.314667-11.2 9.877333-17.088 14.357334-3.648 2.773333-7.402667 5.354667-10.56 8.682666-1.642667 1.728-3.050667 3.52-5.674667 3.968-1.536 0.256-2.432 1.834667-3.2 3.157334-3.306667 5.717333-8.682667 7.701333-14.805333 8.042666-3.029333 0.170667-6.101333 0.682667-9.130667-0.32-3.114667-1.045333-5.312-5.354667-4.373333-8.469333 1.216-4.053333 3.52-7.104 7.296-9.088 2.026667-1.066667 3.349333-2.901333 4.458667-4.842667a12.904533 12.904533 0 0 1 5.482666-5.205333c2.346667-1.194667 4.053333-3.072 5.568-5.162667 0.64-0.896 1.194667-2.005333 2.069334-2.56 3.946667-2.474667 6.677333-5.994667 9.088-9.856 1.024-1.621333 2.453333-2.794667 4.181333-3.669333 0.810667-0.405333 1.642667-1.002667 2.176-1.749333 3.52-4.992 8.704-8.533333 12.202667-13.354667 4.096-5.632 9.898667-9.813333 13.098666-16.128 0.704-1.386667 1.664-2.645333 2.901334-3.541333 3.584-2.56 5.632-6.272 7.701333-9.984 0.597333-1.066667 1.450667-1.856 2.432-2.581334 5.162667-3.84 8.917333-8.810667 11.797333-14.506666a14.826667 14.826667 0 0 1 4.032-4.906667c3.114667-2.496 5.013333-5.696 6.442667-9.322667 0.832-2.090667 2.517333-3.669333 4.053333-5.226666 2.965333-3.029333 5.312-6.421333 6.72-10.410667 0.704-1.984 2.389333-3.285333 3.456-5.034667 1.792-2.88 3.541333-5.738667 4.757334-8.938666 1.450667-3.797333 5.12-6.016 7.082666-9.578667 4.309333-7.765333 9.770667-14.912 12.970667-23.317333 1.066667-2.816 3.029333-5.12 4.992-7.338667 1.045333-1.194667 1.898667-2.368 2.197333-3.946667 0.576-3.029333 2.496-5.44 4.074667-7.914666 2.709333-4.224 3.562667-9.152 5.610667-13.632 1.002667-2.154667 1.728-4.266667 3.541333-6.058667 3.52-3.477333 3.776-7.829333 2.176-12.352-2.346667-6.656-2.282667-6.570667 3.050667-11.114667 5.141333-4.394667 8.426667-9.92 9.322666-16.746666 0.234667-1.770667 0.618667-3.562667 1.813334-4.992 1.493333-1.770667 2.197333-3.797333 2.325333-6.101334 0.256-4.458667 1.621333-8.704 2.688-12.992 0.213333-0.896 0.554667-1.92 1.173333-2.517333 2.389333-2.218667 2.496-5.034667 2.688-7.978667 0.298667-4.757333 0.725333-9.536 1.322667-14.272 0.426667-3.306667 0.149333-6.442667-1.002667-9.557333-1.472-4.010667-6.293333-6.805333-10.453333-5.888-2.24 0.490667-4.48 1.109333-6.357333 2.56-0.597333 0.448-1.322667 0.832-2.048 1.002667-3.562667 0.832-6.314667 2.794667-8.618667 5.568-1.578667 1.92-4.096 2.261333-6.122667 3.370666-4.672 2.56-9.770667 4.458667-13.802666 8.085334-0.917333 0.810667-1.92 1.365333-3.072 1.770666-4.693333 1.621333-9.194667 3.690667-12.48 7.573334-2.666667 3.178667-6.570667 4.224-10.005334 5.909333-2.730667 1.322667-5.674667 2.282667-8.234666 3.946667-4.224 2.752-9.002667 4.330667-13.418667 6.698666-5.397333 2.88-10.773333 6.250667-16.896 7.744-1.322667 0.32-2.133333 1.322667-3.050667 2.218667-2.389333 2.304-4.885333 4.117333-8.512 4.608-7.594667 1.024-14.741333 3.733333-21.845333 6.698667-5.44 2.261333-11.349333 3.456-17.152 4.693333-2.944 0.618667-5.525333-0.661333-7.722667-3.029333-3.072-3.306667-6.869333-5.845333-10.730666-8.170667-1.578667-0.938667-2.730667-2.304-4.096-3.434667-3.498667-2.88-7.701333-4.629333-11.370667-7.189333-2.261333-1.578667-3.605333-4.053333-5.397333-6.058667-1.066667-1.194667-1.898667-2.517333-3.434667-3.328-1.514667-0.810667-1.28-2.922667-0.341333-3.456 3.093333-1.685333 3.84-5.12 6.165333-7.381333 1.685333-1.642667 2.624-2.026667 4.288-0.256 2.709333 2.901333 5.952 4.032 9.941333 2.922667 2.666667-0.746667 5.397333-0.426667 8.149334-0.213334 6.570667 0.533333 13.162667 0.170667 19.669333-0.512 4.224-0.448 8.234667-2.709333 12.48-3.584 5.973333-1.237333 11.2-4.458667 17.088-5.930666 2.986667-0.746667 5.333333-2.944 8-4.437334 1.045333-0.576 1.984-1.28 3.157333-1.578666 2.090667-0.512 4.032-1.301333 5.546667-2.965334 0.490667-0.554667 1.216-1.088 1.898667-1.237333 4.117333-0.832 7.04-3.584 10.133333-6.08 0.832-0.661333 1.792-0.917333 2.752-1.258667 5.781333-2.048 11.050667-5.013333 16-8.725333 4.842667-3.605333 9.429333-7.68 15.488-9.514667 4.736-1.429333 8.810667-4.245333 12.736-7.296 3.370667-2.624 6.485333-5.632 10.922667-6.805333 3.733333-0.981333 6.101333-4.352 8.810666-6.848 2.858667-2.645333 6.592-3.861333 9.322667-6.549333 2.304-2.261333 5.269333-3.669333 7.765333-5.653334 2.154667-1.706667 4.757333-2.517333 6.997334-4.117333 2.624-1.856 4.885333-4.181333 7.786666-5.738667 1.493333-0.789333 2.816-1.728 4.565334-2.005333 2.218667-0.362667 3.989333-1.770667 5.098666-3.584 2.304-3.818667 5.525333-6.293333 9.621334-7.872 2.197333-0.832 3.541333-2.901333 5.248-4.437333 1.152-1.045333 2.24-2.069333 3.904-2.197334 1.173333-0.085333 2.005333-0.853333 2.752-1.706666 2.688-3.114667 4.778667-6.613333 6.549333-10.304 0.725333-1.536 0.704-3.136 0.810667-4.757334 0.384-5.824 0.448-11.541333 2.816-17.258666 2.56-6.165333 2.773333-13.056 2.602666-19.84-0.149333-6.016-1.344-11.84-2.368-17.728-0.106667-0.661333-0.362667-1.322667-0.725333-1.898667-2.368-3.904-3.072-8.042667-2.154667-12.544 0.448-2.24 0.149333-4.48-1.130666-6.4-1.066667-1.621333-1.621333-3.349333-1.941334-5.226667-0.469333-2.688-1.258667-5.269333-2.325333-7.808-1.152-2.752-1.877333-5.632-1.514667-8.725333 0.341333-2.986667-0.704-5.461333-2.965333-7.530667-4.053333-3.669333-6.442667-8.128-5.781333-13.824 0.32-2.688-0.426667-4.992-2.026667-7.189333-2.133333-2.922667-3.456-6.229333-4.117333-9.834667-0.256-1.408-0.682667-2.858667-1.365334-4.096-2.24-3.968-2.752-8.405333-3.733333-12.714666-0.874667-3.797333 0.448-7.061333 3.050667-9.856 2.752-2.965333 5.973333-5.354667 9.450666-7.36 3.925333-2.261333 8.149333-1.984 12.117334-0.426667 4.053333 1.578667 8.085333 2.56 12.437333 2.368 3.541333-0.149333 6.72 0.896 9.450667 3.264 1.536 1.344 3.285333 1.92 5.44 1.493333 2.816-0.576 5.461333 0.085333 7.552 2.176 1.770667 1.770667 3.818667 2.154667 6.122666 1.578667 1.514667-0.384 3.072-0.554667 4.565334-0.170667 6.506667 1.728 13.141333 1.834667 19.797333 1.941334 7.466667 0.128 11.648 4.650667 11.264 12.096-0.064 1.450667-0.234667 2.901333-0.512 4.309333-0.405333 2.112-0.085333 4.032 0.981333 5.909333 1.472 2.581333 1.898667 5.44 0.832 8.149334-2.88 7.274667-2.581333 14.890667-2.645333 22.442666-0.042667 3.370667-0.149333 6.613333-1.514667 9.749334-0.768 1.749333-1.088 3.626667-1.024 5.504 0.362667 12.288-0.789333 24.554667-0.512 36.842666 0.064 2.986667 0.277333 5.973333 0.554667 8.938667 0.234667 2.602667 1.173333 2.816 3.541333 1.664 3.498667-1.706667 7.168-3.072 10.752-4.565333 0.384-0.170667 0.938667-0.064 1.216-0.32 4.074667-3.648 9.770667-3.605333 14.272-6.250667 1.237333-0.725333 2.048-1.749333 2.816-2.901333 1.6-2.453333 3.584-4.352 6.4-5.632 2.410667-1.109333 4.394667-3.157333 6.528-4.842667 1.024-0.810667 2.026667-1.664 3.349334-1.770667 3.84-0.341333 6.698667-2.858667 9.898666-4.544 3.584-1.898667 6.784-4.48 10.24-6.592 5.738667-3.477333 11.029333-7.68 17.386667-10.112 2.026667-0.789333 2.752-3.136 4.501333-4.458666 3.306667-2.496 7.424-3.2 10.858667-5.461334 3.242667-2.133333 6.485333-4.330667 9.877333-6.186666 4.373333-2.389333 8.384-5.738667 13.973334-5.546667 6.634667 0.234667 13.290667-0.128 19.882666 0.981333 2.282667 0.384 3.882667 1.877333 5.290667 3.392 5.717333 6.144 12.266667 11.392 18.901333 16.341334 4.16 3.093333 7.616 6.698667 11.221334 10.24 0.810667 0.789333 1.877333 1.130667 2.837333 1.685333 3.989333 2.282667 5.248 5.738667 1.813333 9.088-3.605333 3.498667-7.317333 6.869333-11.029333 10.261333-0.96 0.874667-1.813333 1.770667-2.602667 2.794667-1.749333 2.304-3.477333 4.608-5.952 6.272-1.664 1.130667-3.050667 2.666667-4.266666 4.352-1.536 2.133333-3.349333 4.096-5.482667 5.696-3.797333 2.837333-6.314667 6.634667-7.978667 11.008-0.896 2.389333-3.072 3.605333-4.714666 5.290667-2.752 2.837333-4.778667 6.037333-6.506667 9.642666-1.664 3.456-3.029333 7.125333-5.866667 10.048-1.856 1.898667-3.349333 4.288-3.861333 7.082667-0.256 1.322667-1.002667 2.346667-2.069333 3.136-3.242667 2.432-4.970667 5.504-6.122667 9.557333-1.578667 5.568-4.565333 10.730667-7.936 15.552-0.746667 1.088-1.216 2.176-1.493333 3.477334-1.109333 5.376-3.84 10.154667-5.76 15.253333-1.237333 3.306667-2.432 6.72-4.544 9.685333-0.490667 0.682667-0.554667 1.792-0.554667 2.709334 0 2.730667-0.725333 5.248-1.941333 7.616-0.832 1.621333-1.408 3.306667-1.6 5.098666-0.32 2.944-1.024 5.674667-3.008 8-0.618667 0.746667-0.896 1.834667-1.173334 2.816-1.941333 6.848-2.88 13.824-2.581333 20.949334 0.128 3.114667-0.533333 5.930667-2.474667 8.405333-1.109333 1.408-1.536 3.008-1.557333 4.778667-0.064 8.874667-0.874667 17.706667-0.341333 26.602666 0.426667 6.997333-0.170667 13.994667-1.813334 20.842667-0.64 2.688-0.533333 5.44-0.725333 8.149333-0.298667 4.224-1.877333 8.128-2.666667 12.224-0.298667 1.621333-0.426667 3.242667 0 4.821334 1.194667 4.266667 1.258667 8.533333 0.874667 12.928-0.426667 4.928-0.042667 9.834667 0.469333 14.784 0.682667 6.4 0.448 12.928 0.469334 19.392 0.021333 5.013333 0.597333 10.090667-1.770667 14.848-0.597333 1.194667-0.128 2.517333 0.362667 3.733333 2.154667 5.504 2.901333 11.029333 0.576 16.682667-0.256 0.597333-0.448 1.429333-0.234667 2.005333 1.472 3.989333 1.301333 8.469333 3.776 12.117333 1.536 2.261333 2.026667 4.608 1.429333 7.296-0.597333 2.602667-0.277333 4.992 1.728 7.082667 3.52 3.648 3.733333 8.533333 4.138667 13.162667 0.448 5.354667 1.984 10.538667 2.048 15.978666 0.042667 3.2 2.858667 5.312 4.224 8.042667 0.448 0.896 1.322667 1.685333 1.344 2.709333 0.277333 7.509333 5.504 13.034667 7.957333 19.690667 1.045333 2.858667 3.072 5.824 5.674667 8.021333 2.965333 2.517333 4.8 5.952 7.061333 9.045334 0.853333 1.173333 1.664 2.474667 2.88 3.221333 4.074667 2.56 6.570667 6.528 9.493334 10.133333 0.32 0.405333 0.64 0.896 1.066666 1.088 5.013333 2.154667 7.594667 7.253333 12.202667 9.941334 4.245333 2.474667 8.021333 5.930667 12.48 7.850666 8.32 3.605333 16.853333 6.869333 26.005333 7.850667 1.024 0.106667 2.026667 0.32 2.922667 0.874667 3.562667 2.261333 7.466667 2.581333 11.562667 2.389333 11.882667-0.554667 23.68 0.341333 35.456 2.005333 1.514667 0.213333 3.008 0.597333 4.48 1.024 5.653333 1.578667 11.285333 2.474667 17.152 1.066667 3.093333-0.746667 6.272-0.256 9.344 0.746667 3.306667 1.088 6.72 1.28 10.112 0.490666 5.205333-1.216 10.325333-0.853333 15.466666 0.298667 3.008 0.661333 6.016 1.322667 9.109334 0.490667 0.32-0.085333 0.682667-0.106667 1.024-0.064 4.778667 0.682667 9.450667-0.384 14.165333-0.661334 5.056-0.298667 10.176-0.192 15.253333-0.725333 0.768-0.085333 1.578667 0.042667 2.282667-0.170667 4.288-1.258667 8.576-0.746667 12.928-0.362666 6.762667 0.597333 13.461333 0.128 19.882667-2.368 1.365333-0.533333 2.773333-0.704 4.245333-0.789334a33.493333 33.493333 0 0 0 12.501333-3.242666c3.456-1.642667 7.018667-3.52 11.093334-3.52 1.429333 0 2.88-0.384 4.266666-0.768 4.842667-1.301333 9.408-3.392 14.464-4.138667 2.944-0.426667 5.44-2.709333 8.085334-4.245333 0.725333-0.426667 1.429333-1.024 2.218666-1.216 5.141333-1.194667 9.088-4.309333 13.141334-7.466667 2.453333-1.898667 5.226667-3.52 8.341333-4.330667 2.986667-0.768 4.821333-3.136 6.933333-5.056 2.048-1.856 4.373333-3.349333 6.805334-4.416a15.771733 15.771733 0 0 0 6.656-5.397333c2.133333-3.008 4.309333-5.909333 7.146666-8.277333 3.562667-2.986667 4.842667-7.488 7.552-11.050667 2.517333-3.306667 3.456-7.552 6.165334-10.816 1.109333-1.322667 1.109333-3.178667 1.130666-4.906667 0.042667-2.282667 0.810667-4.224 2.176-6.122666 2.922667-4.053333 3.861333-8.874667 4.202667-13.76 0.448-6.272 0.341333-12.544 3.008-18.517334 1.344-3.008 0.874667-6.592 0.810667-9.877333-0.149333-7.637333 1.6-15.082667 1.813333-22.677333 0.064-2.218667 0.469333-4.394667-0.085333-6.613334-0.32-1.258667 0.170667-2.325333 0.768-3.392 2.730667-4.885333 4.629333-9.770667 4.202666-15.744-0.32-4.309333 0.554667-8.810667 0.64-13.248 0.042667-2.176 3.306667-5.013333 5.44-4.970666 2.133333 0.042667 4.394667 2.56 4.373334 5.205333-0.021333 4.16-0.341333 8.32-0.234667 12.522667 0.277333 10.069333 0.746667 20.117333 1.173333 30.165333 0.021333 0.682667-0.021333 1.450667 0.277334 2.005333 3.264 6.464 2.261333 13.504 2.858666 20.330667 0.234667 2.858667-0.064 5.888 2.965334 7.68 0.661333 0.384 0.384 1.258667 0.384 1.92 0 32.597333-0.021333 65.194667 0.042666 97.792 0 1.749333-1.237333 2.112-2.005333 3.114667-2.325333 3.072-5.589333 5.269333-7.829333 8.384-2.24 3.072-5.333333 5.248-7.850667 7.957333-3.648 3.904-8.256 6.357333-12.245333 9.685333-6.634667 5.568-14.186667 9.045333-22.549334 11.136-3.328 0.832-6.634667 2.24-9.109333 4.864-1.322667 1.386667-3.093333 1.344-4.736 1.642667-1.514667 0.277333-3.114667 0.405333-4.373333 1.28-2.090667 1.450667-4.437333 1.685333-6.826667 1.834667-2.069333 0.128-4.096 0.426667-5.994667 1.237333-5.034667 2.176-10.410667 2.581333-15.765333 2.965333-5.610667 0.405333-11.072 1.045333-16.618667 2.24-6.144 1.322667-12.352 2.986667-18.858666 2.794667-11.584-0.362667-23.210667-0.106667-34.816-0.106667 0.106667 0.085333 0.106667 0.106667 0.106666 0.149334z" p-id="9310" fill="#51b829"></path></svg>
