<svg t="1632134872982" class="icon" viewBox="0 0 1024 1024" version="1.1" xmlns="http://www.w3.org/2000/svg" p-id="5745" width="200" height="200"><path d="M432.213333 344.177778c-15.502222 0-59.306667 26.88-131.128889 80.782222 0-18.915556 1.706667-42.666667 5.12-70.968889L301.084444 344.177778C364.8 264.533333 396.8 217.6 396.8 203.235556c0-5.546667-3.413333-8.96-10.24-10.24L376.746667 192.995556c-9.955556 5.262222-90.311111 101.12-241.208889 287.431111l0 13.937778c0 6.826667 3.271111 10.24 9.813333 10.24l5.12 0c20.195556 0 60.728889-41.671111 121.315556-125.013333l4.266667 0 0 4.693333C266.24 424.817778 259.697778 527.075556 256.284444 691.342222c3.413333 56.604444 11.662222 84.906667 24.746667 84.906667l14.933333 0 10.24-4.693333L295.964444 615.822222 295.964444 610.702222c3.413333 0 5.12 1.706667 5.12 5.12 21.76 0 63.715556-11.804444 126.008889-35.413333l5.12 0c0 4.693333-3.413333 44.942222-10.24 120.888889l0 5.12L417.28 706.417778c-27.022222-30.151111-42.097778-45.226667-45.226667-45.226667l0 5.12 29.866667 50.346667c-7.111111 0-25.6 1.422222-55.466667 4.266667L346.453333 711.395556C331.093333 717.653333 322.702222 724.195556 321.137778 731.022222l0 5.12c0 6.826667 3.413333 10.24 10.24 10.24l70.4 0 35.413333 4.693333c13.368889-6.826667 20.053333-11.804444 20.053333-14.933333L457.244444 726.897778 452.266667 716.515556c9.955556-42.951111 14.933333-99.982222 14.933333-171.235556L467.2 484.693333C467.2 390.968889 455.537778 344.177778 432.213333 344.177778zM432.213333 545.28 295.964444 590.506667 295.964444 454.826667c0-3.413333 41.955556-31.857778 126.008889-85.333333 7.822222 0 12.942222 25.173333 15.36 75.662222C433.92 482.275556 432.213333 515.697778 432.213333 545.28zM693.617778 570.453333c10.24-5.262222 15.36-10.382222 15.36-15.36L708.977778 545.28c0-12.088889-20.195556-23.893333-60.728889-35.413333L608.142222 509.866667c-25.884444 0-40.96 6.684444-45.226667 20.053333l0 5.12c48.213333 9.955556 90.026667 21.76 125.582222 35.413333L693.617778 570.453333zM809.244444 273.208889 778.524444 273.208889c-64.142222 0-120.888889 11.804444-170.382222 35.413333L603.022222 308.622222 603.022222 303.502222l60.728889-110.648889c0-5.546667-3.413333-8.817778-10.24-9.813333L628.195556 208.355556C550.826667 331.52 512 403.768889 512 424.96c2.133333 13.368889 7.253333 20.053333 15.36 20.053333l4.693333 0c10.524444-0.995556 24.035556-27.875556 40.533333-80.782222 10.24-32 82.346667-52.195556 216.035556-60.728889l5.12 0 0 156.302222C785.777778 670.862222 770.844444 776.248889 749.084444 776.248889c-33.564444 0-77.226667-21.617778-130.702222-64.853333L608.142222 711.395556c59.733333 70.257778 108.373333 105.528889 146.062222 105.528889l5.12 0c46.648889 0 69.973333-147.626667 69.973333-442.88C829.297778 306.773333 822.613333 273.208889 809.244444 273.208889z" p-id="5746" fill="#51b829"></path></svg>
