<svg t="1632134975775" class="icon" viewBox="0 0 1024 1024" version="1.1" xmlns="http://www.w3.org/2000/svg" p-id="8434" width="200" height="200"><path d="M816.661333 641.237333c2.474667 0.661333 4.928 0.768 7.402667 0.512 2.112-0.213333 4.053333 0.085333 5.738667 1.557334 0.896 0.789333 2.048 1.130667 3.264 1.322666 7.957333 1.152 16 0.618667 24 1.130667 4.202667 0.277333 8.32 0.042667 12.48-0.597333 3.242667-0.512 6.293333-0.128 9.301333 1.749333 2.453333 1.536 5.568 1.706667 8.149333 3.456 3.008 2.048 4.821333 4.757333 6.122667 7.957333 0.768 1.898667 1.749333 3.562667 3.733333 4.288 1.514667 0.554667 1.002667 1.770667 1.130667 2.794667 0.128 1.088-0.298667 1.706667-1.450667 1.984-1.792 0.405333-2.624 2.090667-3.925333 3.178667-4.032 3.349333-8.298667 6.4-12.714667 9.216-1.045333 0.661333-2.133333 1.045333-3.370666 1.045333-11.072-0.042667-22.165333 0.256-33.216-0.405333-2.730667-0.170667-5.162667-1.706667-7.530667-3.050667-2.602667-1.472-5.312-2.24-8.32-2.026667-4.757333 0.341333-9.301333-0.170667-13.504-2.837333-2.005333-1.28-4.522667-1.728-6.912-1.578667-4.629333 0.32-8.810667-0.810667-12.544-3.477333-2.965333-2.133333-6.229333-2.602667-9.706667-2.346667-4.586667 0.341333-8.96 0.192-12.821333-3.008-1.813333-1.514667-4.437333-1.088-6.72-1.024-4.202667 0.128-8.298667 0.234667-11.818667-2.816-1.301333-1.130667-3.242667-1.386667-5.12-1.301333-1.792 0.085333-3.605333-0.149333-5.376 0-3.733333 0.341333-7.168-0.618667-10.154666-2.666667-3.306667-2.261333-6.976-2.602667-10.709334-2.794666-3.2-0.170667-6.101333-0.533333-8.832-2.645334-2.432-1.877333-5.845333-1.813333-8.661333-1.472-5.248 0.618667-9.429333-1.728-13.802667-3.669333-2.090667-0.917333-4.16-1.472-6.4-1.6-3.157333-0.192-5.973333-1.216-8.384-3.349333-3.2-2.837333-7.424-3.733333-11.114666-5.653334-6.741333-3.52-13.952-5.952-20.970667-8.789333-2.922667-1.173333-4.949333-3.925333-7.744-5.312-3.712-1.877333-6.826667-5.077333-11.328-5.290667-1.792-0.085333-3.242667-0.810667-4.522667-2.090666-1.664-1.664-4.032-1.706667-6.101333-2.474667-0.554667-0.213333-1.322667-0.106667-1.706667-0.469333-3.669333-3.349333-8.469333-4.074667-12.8-5.952-3.456-1.493333-6.613333-3.242667-10.474666-3.392-1.6-0.064-2.410667-1.792-3.818667-2.453334-2.794667-1.28-5.653333-2.368-8.597333-3.2-0.96-0.277333-2.090667-0.597333-2.752-1.258666-2.090667-2.112-4.672-2.688-7.445334-2.858667-0.874667-0.042667-1.749333-0.149333-2.346666-0.832-1.578667-1.856-3.712-2.752-5.952-3.285333-5.589333-1.344-10.304-4.736-15.786667-6.464-3.306667-1.045333-6.549333-2.602667-10.026667-3.392-0.853333-0.192-1.514667-0.725333-2.154666-1.322667-2.346667-2.154667-5.205333-3.178667-8.256-3.776-0.832-0.170667-1.749333-0.234667-2.453334-0.64-3.392-1.941333-6.762667-3.861333-10.837333-4.032-0.597333-0.021333-1.237333-0.554667-1.728-1.002667-5.952-5.098667-13.717333-5.248-20.032-0.32-0.789333 0.618667-1.621333 0.874667-2.581333 0.874667-2.24 0.021333-4.416 0.448-6.528 1.130667-1.642667 0.512-2.730667 1.578667-3.221334 3.328-1.024 3.690667-3.477333 6.528-5.802666 9.408-2.090667 2.581333-4.16 5.184-6.378667 7.637333-4.693333 5.184-9.770667 9.984-14.848 14.784-5.056 4.8-9.642667 10.133333-14.464 15.168-5.056 5.290667-10.24 10.517333-14.805333 16.234667-4.074667 5.098667-9.642667 8.661333-13.525334 13.845333-4.821333 6.421333-10.389333 12.224-16.064 17.856-6.634667 6.613333-12.288 14.08-18.88 20.714667-1.173333 1.173333-2.368 2.176-4.181333 2.176-0.490667 0-1.109333 0.128-1.450667 0.448-2.538667 2.325333-5.632 3.754667-8.533333 5.482666-7.445333 4.437333-13.44 10.666667-20.010667 16.192-0.256 0.213333-0.597333 0.362667-0.810666 0.64-5.696 7.445333-13.674667 12.266667-21.056 17.685334-7.168 5.290667-13.056 11.989333-20.224 17.216-4.117333 3.008-8.405333 5.738667-13.12 7.829333-3.861333 1.728-7.082667 4.629333-10.581334 7.018667-3.264 2.24-6.378667 4.757333-10.069333 6.357333-0.597333 0.256-1.045333 0.853333-1.536 1.344-3.477333 3.434667-7.488 6.101333-11.84 8.277333-2.282667 1.152-4.202667 2.901333-6.186667 4.373334-3.648 2.709333-7.893333 4.330667-11.477333 7.04-1.728 1.301333-3.434667 2.474667-5.674667 2.730666-0.469333 0.042667-1.002667 0.341333-1.344 0.682667-2.517333 2.602667-6.250667 3.114667-9.045333 5.098667-4.181333 2.986667-9.685333 3.136-13.525333 6.762666-1.109333 1.045333-2.709333 0.917333-4.138667 1.066667-3.84 0.362667-7.616 0.832-11.029333 2.858667-1.664 0.981333-3.562667 1.045333-5.461334 0.448-2.112-0.661333-2.645333-2.56-1.152-4.245334 1.429333-1.642667 1.6-5.866667 0.32-7.530666-1.664-2.133333-1.301333-3.456 0.704-5.141334 1.984-1.642667 3.968-2.794667 6.656-2.730666 1.258667 0.021333 2.453333-0.682667 3.498667-1.450667 1.194667-0.853333 2.56-1.450667 3.968-1.706667 3.029333-0.576 5.781333-1.386667 8.362667-3.413333 1.92-1.493333 4.693333-1.792 6.890666-3.136 1.450667-0.896 3.050667-1.493333 4.16-2.88 0.213333-0.256 0.469333-0.554667 0.768-0.661333 8.64-3.136 15.253333-9.6 23.061334-14.122667 3.584-2.069333 6.336-5.653333 9.984-7.850667 4.309333-2.602667 7.765333-6.250667 11.882666-9.066666 3.157333-2.176 5.845333-5.013333 8.490667-7.722667 5.568-5.717333 12.096-10.24 17.984-15.509333 8.533333-7.68 17.152-15.253333 25.258667-23.402667 12.693333-12.736 25.578667-25.28 37.994666-38.272 5.525333-5.76 10.88-11.733333 16.448-17.450667 9.642667-9.877333 17.941333-20.949333 27.861334-30.570666 3.477333-3.370667 7.36-6.549333 10.218666-10.346667 4.714667-6.293333 10.944-11.2 15.274667-17.770667 0.682667-1.045333 1.664-1.941333 2.581333-2.816 3.968-3.754667 6.442667-8.704 10.282667-12.565333 1.216-1.216 1.109333-3.008 1.088-4.629333-0.021333-3.349333 0.341333-6.464 2.389333-9.429334 2.325333-3.370667 0.618667-9.258667-2.666666-12.032-3.84-3.221333-8.426667-4.736-13.098667-6.122666-2.389333-0.704-4.608-1.792-6.485333-3.477334-3.008-2.730667-7.061333-2.837333-10.645334-4.096-4.010667-1.386667-7.658667-3.264-10.730666-6.208-0.682667-0.661333-1.450667-1.216-2.368-1.472-5.248-1.429333-9.6-4.650667-14.293334-7.168-1.514667-0.810667-2.624-2.133333-3.626666-3.541333-0.725333-1.024-1.621333-1.984-2.56-2.837333-2.453333-2.197333-4.672-2.24-6.976 0.149333-1.962667 2.048-4.437333 3.456-6.464 5.397333-2.048 1.941333-4.608 2.624-7.445334 2.901334-6.144 0.618667-12.245333-0.341333-18.368-0.213334-1.472 0.021333-2.986667-0.448-4.074666-1.344-2.688-2.218667-5.205333-4.608-7.744-6.997333-1.152-1.066667-1.130667-2.218667 0.149333-3.264 1.728-1.386667 3.456-2.688 5.546667-3.605333 3.392-1.493333 6.741333-3.008 7.722666-7.36 0.554667-2.474667 3.264-3.84 5.312-4.885334 4.394667-2.24 7.402667-5.973333 11.050667-9.002666 5.930667-4.949333 10.24-11.328 15.168-17.194667 4.096-4.885333 8.96-9.130667 13.013333-14.058667 4.650667-5.632 8.704-11.754667 13.162667-17.536a61.888 61.888 0 0 0 5.504-8.533333c1.621333-3.029333 3.626667-5.973333 6.336-8.298667 3.712-3.2 5.226667-7.914667 7.893333-11.818666 3.306667-4.821333 6.208-9.92 9.685334-14.656 1.834667-2.474667 3.52-5.184 4.586666-8.213334 0.96-2.730667 3.392-4.586667 4.906667-7.04 0.725333-1.173333 2.538667-0.469333 3.242667 0.704 3.114667 5.12 7.317333 9.386667 11.093333 13.952 3.904 4.714667 5.226667 10.026667 5.312 15.872 0.064 5.717333 0.064 11.413333 0.128 17.130667 0.021333 1.365333-0.512 2.56-1.28 3.562667-2.752 3.605333-5.525333 7.274667-10.901333 6.528-3.861333-0.533333-6.549333 1.088-9.024 4.074666-3.52 4.266667-6.016 8.874667-8.021334 14.037334-1.237333 3.178667-2.837333 6.528-4.672 9.408-2.026667 3.178667-2.88 6.677333-4.544 9.898666-0.384 0.746667-0.618667 1.664-1.194666 2.24-2.026667 2.026667-2.944 4.522667-3.52 7.210667-0.213333 1.002667-0.682667 1.92-1.386667 2.709333-2.325333 2.56-2.112 5.845333-2.410667 8.938667-0.106667 1.152 0.576 2.154667 1.472 2.88 4.757333 3.882667 9.685333 7.530667 15.509334 9.664 1.301333 0.469333 2.517333 0.96 3.605333 1.877333 0.64 0.533333 1.450667 1.258667 2.176 1.237334 4.288-0.042667 6.314667 3.605333 9.429333 5.461333 5.525333 3.285333 11.306667 7.402667 18.048 4.842667 6.933333-2.645333 14.186667-4.522667 20.608-8.64 2.837333-1.813333 5.290667-3.413333 6.677334-6.506667 0.298667-0.682667 0.917333-1.237333 1.450666-1.770667 3.626667-3.626667 6.122667-7.957333 8.725334-12.373333 3.413333-5.76 6.912-11.413333 9.493333-17.621333 0.853333-2.069333 1.621333-4.138667 1.92-6.336 0.661333-4.821333 1.664-9.557333 2.986667-14.250667 0.917333-3.242667 0.597333-6.421333-1.557334-9.237333-0.981333-1.28-1.834667-2.666667-2.666666-4.053334-1.258667-2.069333-3.157333-3.2-5.461334-3.306666-4.330667-0.192-8.682667-0.618667-13.034666 0.042666-2.816 0.426667-4.373333-1.450667-4.309334-4.224 0.128-4.309333 3.050667-6.613333 5.845334-9.088 0.597333-0.533333 1.429333-0.597333 2.197333-0.512 2.986667 0.256 5.333333-0.704 7.530667-2.901333 1.856-1.877333 4.394667-2.922667 6.784-4.181333 2.794667-1.472 5.952-2.901333 8.170666-5.44 1.792-2.026667 4.138667-3.050667 6.485334-4.288 5.269333-2.773333 11.050667-4.608 15.744-8.533334 2.581333-2.154667 5.418667-3.968 8.64-5.312 2.986667-1.237333 5.461333-3.626667 8.426666-5.141333 4.288-2.197333 8.32-4.757333 13.589334-4.437333 3.370667 0.213333 6.144 1.28 8.661333 3.264 4.053333 3.178667 8.192 6.208 11.2 10.602666 2.496 3.626667 2.944 10.026667-0.021333 13.248-1.493333 1.642667-1.92 3.754667-3.093334 5.546667-3.306667 5.013333-5.888 10.517333-9.088 15.509333-2.965333 4.629333-4.885333 9.856-8.448 14.208-3.072 3.754667-5.248 8.298667-7.573333 12.629334-1.92 3.584-3.84 7.061333-6.229333 10.410666-2.666667 3.733333-4.864 7.936-6.912 12.117334-1.834667 3.712-3.968 7.253333-6.421334 10.56-1.301333 1.749333-2.346667 3.669333-2.986666 5.610666-2.133333 6.485333-6.698667 11.392-10.474667 16.789334-1.28 1.856-2.282667 3.84-3.072 5.866666-1.28 3.349333-4.032 5.632-5.632 8.725334-1.856 3.584-0.341333 7.082667 2.048 9.258666 1.898667 1.728 4.16 3.221333 6.698667 4.096 0.170667 0.064 0.384 0.042667 0.490666 0.149334 3.52 3.562667 8.96 3.306667 12.714667 6.464 1.642667 1.365333 3.882667 1.664 5.824 2.474666 3.818667 1.621333 7.061333 4.565333 11.349333 5.12 0.405333 0.042667 0.810667 0.298667 1.152 0.533334 5.824 4.053333 12.458667 6.464 18.794667 9.493333 0.768 0.362667 1.642667 0.618667 2.24 1.173333 1.6 1.472 3.413333 2.090667 5.568 2.218667 2.069333 0.106667 4.010667 0.682667 5.461333 2.410667 0.618667 0.725333 1.536 1.130667 2.474667 1.258666 3.712 0.576 6.933333 2.24 9.92 4.437334 1.536 1.130667 3.221333 1.941333 5.184 1.898666 0.874667-0.021333 1.792 0.234667 2.346667 0.853334 3.050667 3.392 7.616 3.626667 11.392 5.461333 2.218667 1.066667 3.968 3.114667 6.506666 3.413333 3.008 0.362667 5.909333 0.746667 8.042667 3.242667 0.256 0.277333 0.768 0.469333 1.152 0.490667 4.693333 0.064 8.149333 3.136 12.138667 4.906666 0.618667 0.277333 1.258667 0.512 1.92 0.682667 3.264 0.832 6.741333 1.024 9.429333 3.584 0.725333 0.682667 2.048 0.874667 3.114667 1.002667 2.282667 0.277333 4.245333 1.088 6.016 2.581333 1.408 1.194667 3.178667 1.557333 5.013333 1.642667 2.432 0.106667 4.650667 0.618667 6.442667 2.56 1.706667 1.834667 4.117333 2.304 6.549333 2.538666 2.837333 0.298667 5.546667 0.917333 7.637333 3.093334 1.088 1.130667 2.517333 1.344 4.010667 1.386666 3.285333 0.106667 6.272 0.746667 9.066667 2.837334 2.965333 2.197333 6.762667 2.688 10.346666 3.413333 1.621333 0.32 3.029333 1.024 4.288 2.154667 2.176 1.962667 5.013333 1.344 7.573334 1.706666 1.813333 0.277333 3.456 0.576 4.928 1.792 1.557333 1.28 3.477333 2.133333 5.44 1.941334 5.418667-0.533333 10.026667 1.557333 14.528 4.032 2.474667 1.365333 5.077333 1.877333 7.829333 2.026666 2.922667 0.149333 5.717333 0.554667 8.170667 2.474667 1.493333 1.173333 3.541333 1.109333 5.418666 1.216 4.245333 0.256 8.277333 0.618667 12.266667 2.837333 3.648 2.005333 7.957333 3.114667 12.330667 2.794667 4.416-0.32 8.448 0.725333 12.138666 3.157333 1.173333 0.768 2.474667 1.152 3.861334 1.152 3.221333-0.192 6.357333-0.192 9.514666-0.192z" p-id="8435" fill="#51b829"></path><path d="M375.808 706.325333c5.674667 0.469333 9.898667-0.789333 13.888-2.88 1.493333-0.768 3.008-1.109333 4.693333-0.938666 3.050667 0.277333 6.122667 0.448 9.173334 0.789333 3.349333 0.362667 6.421333 0.085333 9.002666-2.474667 1.301333-1.301333 3.178667-1.578667 4.992-1.749333 2.176-0.213333 4.053333-0.96 5.738667-2.453333 2.538667-2.218667 5.397333-3.797333 8.96-3.861334 2.24-0.042667 4.330667-0.682667 6.037333-2.368 1.514667-1.493333 3.605333-1.472 5.546667-1.578666 1.941333-0.106667 3.669333-0.576 5.226667-1.792 2.090667-1.621333 4.586667-2.261333 7.082666-2.773334 3.776-0.789333 7.210667-2.645333 10.837334-3.648 5.397333-1.493333 10.709333-2.496 14.421333-7.402666 1.322667-1.728 4.117333-1.450667 6.314667-1.450667 3.882667-0.021333 7.509333-1.130667 11.264-1.898667 5.824-1.194667 10.88-4.416 16.896-5.269333 4.352-0.618667 8.405333-3.669333 13.056-3.882667 3.093333-0.149333 5.845333-0.981333 8.512-2.346666 0.682667-0.341333 1.450667-0.64 1.984-1.152 1.472-1.450667 3.221333-1.792 5.162666-1.685334 3.754667 0.192 7.296-0.32 10.282667-2.965333 0.64-0.576 1.706667-0.746667 2.624-0.938667 0.917333-0.192 1.898667-0.341333 2.794667-0.192 6.08 0.938667 11.392-1.429333 16.533333-4.096 1.856-0.96 3.669333-1.344 5.632-1.194666 4.565333 0.341333 9.002667-0.682667 13.461333-1.258667 0.661333-0.085333 1.450667-0.149333 1.962667-0.533333 4.309333-3.306667 9.408-2.624 14.272-2.794667 5.546667-0.192 11.093333-0.064 16.618667-0.064 2.922667 0 5.738667-0.426667 8.597333-1.088 4.693333-1.088 9.493333-0.426667 13.824 1.28 3.989333 1.6 8.042667 2.794667 12.181333 3.754667 2.794667 0.64 3.882667 2.325333 4.394667 4.906666 1.088 5.312 2.218667 10.645333 5.034667 15.424 1.152 1.962667 1.322667 4.224 1.578666 6.4 0.192 1.813333-1.024 2.837333-2.410666 3.584-4.245333 2.282667-7.68 5.525333-10.069334 9.6-2.837333 4.842667-7.189333 8.96-7.850666 14.954667-0.042667 0.32-0.170667 0.682667-0.362667 0.938667-2.410667 3.178667-3.434667 6.72-3.136 10.709333 0.106667 1.386667-0.661333 2.688-1.6 3.690667-2.176 2.368-2.837333 5.205333-2.773333 8.277333 0.064 2.922667-0.64 5.482667-2.218667 7.978667-3.328 5.248-2.88 11.264-3.178667 17.109333-0.064 1.173333 0.149333 2.389333-0.149333 3.562667-1.130667 4.437333 0.362667 8.170667 3.498667 11.136 2.624 2.496 3.925333 5.781333 5.653333 8.746666 1.237333 2.154667 2.538667 4.16 4.138667 5.994667 2.538667 2.901333 3.648 6.677333 6.037333 9.706667 3.306667 4.202667 6.549333 8.469333 9.088 13.205333 0.533333 1.002667 1.173333 1.92 0.938667 3.072-0.746667 3.733333-0.192 7.488-0.128 11.221333 0.106667 6.314667-4.586667 11.456-10.858667 11.733334-4.010667 0.192-8 0.298667-11.989333 0.938666-1.749333 0.277333-3.605333 0.341333-5.354667 0.064-9.578667-1.450667-19.242667-0.789333-28.864-1.258666-4.309333-0.213333-8.896 1.045333-12.949333-0.490667-12.224-4.650667-24.896-3.093333-37.44-3.328-7.68-0.128-15.36-0.170667-23.04-0.021333-4.928 0.106667-9.898667 0.277333-14.357334 2.922666-1.344 0.789333-2.965333 1.130667-4.458666 1.002667-5.973333-0.554667-11.157333 1.706667-16.298667 4.224-0.448 0.234667-0.938667 0.576-1.408 0.576-5.034667-0.042667-8.746667 2.944-12.672 5.418667-0.426667 0.277333-0.96 0.490667-1.237333 0.874666-2.005333 2.816-4.757333 3.648-8.064 3.306667-1.130667-0.128-2.005333 0.533333-2.56 1.429333-1.152 1.877333-2.816 3.029333-4.906667 3.392-3.264 0.576-5.632 2.538667-8.064 4.565334-7.808 6.485333-16.469333 12.032-23.381333 19.541333-5.568 6.058667-11.712 11.626667-16 18.837333-1.792 3.029333-4.821333 5.248-6.208 8.64-0.277333 0.661333-1.024 0.512-1.6 0.512-2.816 0.064-5.226667 0.213333-7.296-2.922666-2.197333-3.306667-4.010667-6.890667-6.464-10.069334-0.917333-1.173333-1.258667-2.752-1.664-4.245333-0.810667-2.944-1.770667-5.866667-3.562667-8.448-1.045333-1.493333-1.6-3.2-1.792-5.013333-0.298667-2.922667-1.002667-5.632-2.538667-8.213334-1.578667-2.666667-2.410667-5.632-1.813333-8.832 0.277333-1.450667 0.021333-2.901333-0.533333-4.266666-1.472-3.626667-2.282667-7.488-4.117334-11.008-0.874667-1.664-0.64-3.669333-0.661333-5.546667-0.021333-5.205333 0.085333-10.389333-3.370667-14.890667-1.088-1.429333-1.088-3.349333-0.938666-5.184 0.405333-4.672 0.149333-9.216-2.773334-13.205333-0.981333-1.344-1.322667-2.944-1.344-4.608-0.064-4.757333-1.706667-9.024-4.245333-12.949333-1.088-1.685333-1.002667-3.605333-1.216-5.418667-0.341333-3.157333-0.789333-6.144-2.794667-8.853333-1.749333-2.346667-1.365333-5.568-2.624-8.234667-3.072-6.613333-5.482667-13.589333-9.152-19.818667-3.392-5.76-6.506667-12.032-12.992-15.381333-1.621333-0.832-2.773333-2.496-4.544-3.221333-0.725333-0.298667-1.237333-0.96-0.981333-1.856 0.234667-0.810667 0.96-0.96 1.642667-0.917334 2.026667 0.085333 3.370667-0.96 4.416-2.538666 0.682667-1.024 1.642667-1.749333 2.858666-2.005334 9.045333-1.984 18.069333-3.776 26.154667-4.544z m231.488-7.957333c0-3.754667-0.021333-8.362667 0.021333-12.949333 0.021333-2.389333-0.576-4.394667-2.197333-6.314667-3.392-3.968-7.36-6.933333-12.416-8.384-0.469333-0.128-0.874667-0.490667-1.28-0.810667-3.285333-2.432-6.592-4.821333-10.794667-5.482666-1.109333-0.170667-2.005333-0.853333-2.986666-1.386667-3.605333-1.962667-7.338667-2.197333-10.965334-0.192-2.218667 1.216-4.48 2.154667-6.976 2.368-6.528 0.597333-13.056 1.152-18.709333 5.056-0.874667 0.597333-1.984 0.405333-2.986667 0.554667-2.005333 0.277333-4.224-0.021333-5.845333 1.472-2.005333 1.856-4.394667 2.453333-6.976 2.794666-1.237333 0.170667-2.688 0.405333-3.626667 1.130667-5.098667 4.117333-11.989333 4.330667-17.237333 8.042667-0.469333 0.32-1.109333 0.426667-1.706667 0.533333-5.888 1.152-10.24 5.162667-15.061333 8.277333-1.344 0.853333-2.432 1.664-4.074667 1.642667-2.218667-0.021333-4.629333-0.149333-6.421333 1.28-3.648 2.901333-8.362667 3.605333-12.096 6.272-2.346667 1.664-5.610667 1.429333-7.637333 3.370667-3.541333 3.413333-9.194667 3.072-12.224 7.210666-0.128 0.170667-0.448 0.213333-0.704 0.277334-4.821333 1.194667-8.768 4.309333-13.354667 6.08-0.682667 0.256-1.322667 0.810667-1.834667 1.344-1.258667 1.322667-2.794667 1.834667-4.565333 2.026666-4.757333 0.469333-7.402667 3.242667-7.402667 8.064 0 12.117333-0.042667 24.234667 0.192 36.352 0.128 6.72 0.298667 13.504 2.453334 19.989334 1.472 4.501333 3.072 8.896 3.136 13.781333 0.064 4.48 2.901333 8.341333 4.672 12.266667 2.389333 5.290667 5.653333 10.624 11.349333 13.354666 3.136 1.514667 6.656 2.986667 10.026667 2.261334 4.245333-0.938667 8.426667-1.088 12.693333-1.194667 2.645333-0.064 5.354667-0.149333 7.722667-1.472 3.349333-1.877333 6.976-3.114667 10.474666-4.629333 1.898667-0.810667 3.733333-0.896 5.696-0.128 2.112 0.832 4.032 0.512 5.461334-1.429334 1.173333-1.557333 2.730667-2.154667 4.672-2.197333 2.026667-0.064 4.202667 0.128 5.930666-1.194667 5.482667-4.16 12.778667-4.16 18.325334-8.170666 0.256-0.192 0.64-0.277333 0.96-0.32 4.736-0.512 8.256-3.818667 12.458666-5.568 3.605333-1.514667 6.954667-3.797333 10.474667-5.632 3.050667-1.6 6.528-2.666667 9.066667-5.397334 2.602667-2.794667 5.930667-4.842667 8.981333-7.104 2.389333-1.749333 4.906667-3.370667 6.954667-5.504 5.482667-5.696 10.645333-11.669333 15.68-17.792 4.821333-5.888 7.445333-12.949333 11.968-18.901333 0.426667-0.554667 0.554667-1.450667 0.554666-2.197333 0-1.6 0.725333-2.730667 1.856-3.754667 2.325333-2.112 3.456-4.757333 3.541334-7.914667 0.085333-3.008 0.661333-6.016 2.474666-8.469333 1.344-1.813333 2.005333-3.690667 2.069334-5.888 0.128-4.864 0.490667-9.706667 0.213333-15.424zM456.277333 126.549333h18.688c1.237333 0 2.389333 0 2.837334 1.514667 0.106667 0.362667 0.512 0.725333 0.874666 0.896 5.12 2.453333 7.082667 7.338667 9.386667 11.989333 0.874667 1.749333 1.941333 3.413333 2.986667 5.056 2.069333 3.306667 3.242667 6.912 3.562666 10.794667 0.021333 0.256 0.021333 0.554667 0.170667 0.746667 4.074667 5.354667 3.242667 11.818667 4.074667 17.898666 0.384 2.816 1.109333 5.525333 2.218666 8.106667 2.56 5.973333 2.325333 12.352 2.581334 18.624 0.170667 4.266667 0.362667 8.512 0.725333 12.757333 0.277333 3.328 1.984 4.416 5.141333 3.413334 3.605333-1.152 7.36-0.896 10.901334-0.192 7.573333 1.450667 15.146667 0.064 22.698666 0.426666 9.984 0.469333 19.925333-1.344 29.888-0.896 12.629333 0.554667 25.237333 0.170667 37.866667 0.277334 5.717333 0.042667 11.413333-0.426667 17.130667-0.469334 8.853333-0.064 17.685333 0.128 26.538666 0.618667 5.269333 0.298667 10.56 0.170667 15.850667-0.042667 15.936-0.597333 31.893333-0.917333 47.850667-0.362666 2.56 0.085333 5.098667 0.298667 7.658666 0.490666 0.512 0.042667 1.109333 0.064 1.472 0.341334 5.141333 3.776 12.458667 3.242667 16.853334 8.490666 0.298667 0.362667 0.853333 0.576 1.322666 0.725334 6.165333 1.962667 11.456 5.333333 16.384 9.472 2.261333 1.898667 4.885333 3.370667 7.402667 4.970666 2.794667 1.749333 4.629333 4.501333 7.061333 6.613334 4.992 4.373333 9.344 9.450667 14.762667 13.333333 1.578667 1.130667 1.408 2.666667-0.085333 3.584-5.973333 3.626667-10.56 9.130667-16.853334 12.309333-1.92 0.96-3.306667 2.666667-4.970666 3.968-4.757333 3.754667-10.24 6.378667-15.082667 9.898667-3.562667 2.602667-6.784 5.696-10.624 7.872-6.72 3.84-11.904 9.813333-19.136 13.056-3.84 1.728-6.954667 5.12-10.282667 7.914667-2.496 2.112-4.949333 3.733333-8.512 3.008-2.24-0.448-4.586667-0.170667-6.890666 0.170666-6.848 1.024-12.629333-0.746667-17.024-6.336-0.576-0.725333-1.28-1.386667-1.92-2.069333-2.282667-2.432-2.410667-5.589333-0.128-8.021333 3.690667-3.946667 6.016-8.874667 9.258666-13.034667 4.458667-5.717333 7.253333-12.48 12.096-17.941333 2.005333-2.261333 3.861333-4.928 4.992-7.957334 0.896-2.410667 2.986667-4.117333 4.48-6.165333 1.706667-2.368 2.304-10.005333 0.832-12.522667-0.554667-0.917333-1.429333-1.386667-2.389333-1.813333-6.762667-3.029333-13.824-4.501333-21.226667-4.906667-8.853333-0.490667-17.642667-1.664-26.496-2.282666-3.029333-0.213333-6.122667 0.277333-9.194666 0.469333-7.744 0.490667-15.488 0.533333-23.232 1.045333-6.293333 0.426667-12.522667 1.109333-18.752 2.005334-1.706667 0.256-3.349333 0.704-4.714667 1.834666-1.28 1.066667-2.837333 1.130667-4.373333 1.130667-4.693333 0-9.365333 0.512-14.037334 0.938667-1.386667 0.128-2.773333 0.341333-3.904 1.109333-3.136 2.154667-6.677333 2.453333-10.282666 2.368-4.928-0.106667-9.642667 0.469333-14.016 3.093333-3.626667 2.176-7.744 2.496-11.882667 2.453334-4.074667-0.042667-7.914667 0.597333-11.541333 2.730666-3.52 2.069333-7.616 1.621333-11.498667 1.92-2.261333 0.170667-4.288 0.725333-6.336 1.685334-4.181333 1.962667-8.362667 3.498667-13.269333 2.837333-3.584-0.469333-6.890667 1.685333-10.112 3.157333-2.538667 1.152-5.376 2.176-6.848 5.056-0.576 1.130667-1.962667 0.896-3.029334 0.469334-3.882667-1.557333-7.786667-1.536-11.776-0.469334-1.706667 0.469333-3.541333 0.661333-5.312 0.682667-5.184 0.064-9.834667 1.813333-14.272 4.288-1.685333 0.938667-3.477333 1.258667-5.397333 1.322667-4.672 0.149333-9.408 0-13.312 3.370666-1.258667 1.088-3.050667 0.896-4.693333 0.874667-3.328-0.085333-6.805333-0.277333-9.792 1.301333-2.133333 1.130667-4.266667 2.026667-6.528 2.816-1.749333 0.597333-3.477333 0.768-5.269334 0.810667-4.736 0.106667-9.258667 0.661333-13.184 3.84-1.898667 1.536-4.608 1.088-6.954666 1.088-3.968 0.021333-7.829333 0.170667-11.093334 2.922667-0.981333 0.832-2.368 0.981333-3.669333 0.896-6.208-0.341333-11.712 1.770667-16.917333 4.885333-1.301333 0.768-2.581333 1.173333-4.096 1.152-4.714667-0.085333-9.173333 0.341333-13.482667 2.944-4.885333 2.944-9.450667 1.045333-11.818667-4.096-1.024-2.197333-0.085333-4.458667 2.133334-4.714667 3.050667-0.341333 5.397333-2.090667 7.765333-3.690666 1.301333-0.874667 2.602667-1.493333 4.032-2.048 4.949333-1.898667 9.770667-4.074667 14.506667-6.506667 4.394667-2.261333 8.469333-5.162667 12.970666-7.018667 6.122667-2.496 11.413333-6.549333 17.408-8.96 4.138667-1.664 7.210667-4.778667 11.434667-6.293333 4.010667-1.429333 7.722667-4.202667 11.392-6.634667 4.224-2.794667 8.277333-5.824 12.778667-8.170666 4.650667-2.410667 8.469333-5.952 12.565333-9.088 4.650667-3.562667 8.981333-7.552 13.098667-11.776 2.816-2.901333 4.885333-6.336 6.698666-9.92 0.576-1.152 0.768-2.453333 0.661334-3.754667-0.746667-8.853333-0.448-17.749333-0.106667-26.602667 0.256-6.144-2.112-11.306667-4.16-16.661333-0.896-2.346667-1.877333-4.778667-3.797333-6.613333-0.128-0.106667-0.256-0.298667-0.234667-0.448 0.021333-4.650667-3.029333-8.192-4.373333-12.330667-0.746667-2.325333-1.877333-4.373333-3.157334-6.378667-2.389333-3.776-2.986667-8.469333-6.229333-11.861333-1.216-1.28-0.853333-3.072 0.661333-4.288 1.002667-0.789333 2.069333-1.472 2.538667-2.794667 0.426667-1.194667 1.578667-0.789333 2.453333-0.810666 6.229333-0.042667 12.458667-0.021333 18.688-0.021334-0.064 0.106667-0.064 0.106667-0.064 0.128zM250.496 385.6c-0.277333-6.336 0.192-10.858667 2.346667-15.104 1.792-3.52 1.984-7.381333 2.133333-11.221333 0.106667-2.730667 0.021333-5.461333 0.064-8.192 0.042667-2.837333 0.554667-5.504 2.026667-8.064 1.813333-3.136 2.517333-6.784 2.368-10.368-0.384-8.789333 1.429333-17.088 4.48-25.237334 1.173333-3.114667 1.642667-6.528 0.938666-9.834666-0.661333-3.157333-0.405333-6.101333 0.704-9.045334 1.173333-3.136 0.661333-6.165333-0.96-8.853333-2.24-3.690667-4.586667-7.36-6.954666-10.922667-2.069333-3.114667-4.544-6.122667-6.954667-9.088-3.434667-4.224-6.357333-8.853333-10.005333-12.906666-1.578667-1.749333-1.770667-3.221333-0.277334-5.397334 2.538667-3.690667 6.4-5.824 9.408-8.938666 0.554667-0.576 1.450667-0.362667 2.197334-0.469334 6.442667-0.981333 11.605333 1.792 16.789333 5.162667 4.992 3.264 8.426667 7.68 11.861333 12.416 2.602667 3.584 3.541333 8.064 6.698667 11.285333 0.704 0.704 0.938667 2.026667 1.066667 3.114667 0.576 5.333333 2.666667 10.197333 4.48 15.146667 1.557333 4.224 0.917333 8.618667 1.365333 12.906666 0.512 4.992 0.682667 10.026667 1.024 15.04 0.106667 1.706667 0.170667 3.413333-0.213333 5.098667-1.216 5.482667-0.896 11.050667-0.746667 16.576 0.064 2.005333-0.32 3.648-1.472 5.248-2.752 3.818667-4.202667 7.850667-3.925333 12.842667 0.341333 6.314667 0.213333 12.8-3.392 18.56-0.853333 1.365333-0.704 3.136-0.832 4.757333-0.213333 2.474667-0.405333 4.949333-0.405334 7.402667-0.021333 4.373333 0.021333 8.682667-2.837333 12.458666-0.768 1.024-1.130667 2.56-1.173333 3.882667-0.192 5.504-2.048 10.88-1.024 16.512 0.512 2.816-1.28 5.248-2.538667 7.637333-1.066667 2.026667-1.749333 4.010667-1.728 6.314667 0.042667 2.816-1.045333 3.797333-3.904 3.754667-1.962667-0.021333-3.925333-0.106667-5.888-0.106667-2.24 0-3.925333-0.96-5.76-2.261333-3.733333-2.688-7.168-5.738667-10.88-8.426667-2.581333-1.877333-3.456-4.181333-3.434667-7.445333 0-4.992 2.56-9.152 3.626667-13.781334 0.938667-4.053333 2.218667-7.957333 1.728-10.453333z" p-id="8436" fill="#51b829"></path></svg>
