<svg t="1632135110979" class="icon" viewBox="0 0 1024 1024" version="1.1" xmlns="http://www.w3.org/2000/svg" p-id="13804" width="200" height="200"><path d="M538.96192 270.83776c0 10.57792-0.16896 21.16096 0.03584 31.73888 0.41984 21.57056 0.61952 43.15136 0.18944 64.71168-0.57344 28.57984-0.05632 57.15968-0.4352 85.73952-0.03072 2.38592 0.03584 4.77696 0.06656 7.168 0.02048 1.86368 0.27648 3.74784-1.67424 5.02784-0.74752 0.49152-0.56832 1.54624-0.56832 2.40128 0.01536 9.216 0.04096 18.432 0.03072 27.64288 0 1.41824 0.03584 2.7136 1.37216 3.61472 0.69632 0.47104 0.78848 1.28 0.7936 2.06848 0.02048 2.21696 0.04608 4.43904 0.03584 6.656-0.00512 0.50688 0.0256 1.16224-0.26112 1.48992-2.86208 3.32288-1.59744 7.30112-1.7664 11.02336-0.14336 3.1488-0.01536 6.31296-0.06144 9.472-0.02048 1.39264 0.18944 2.69824 0.77312 3.97312 0.34816 0.76288 0.68096 1.62816 0.67072 2.44224-0.08704 6.9888 0.97792 13.94688 0.59904 20.9408-0.03072 0.58368 0.00512 1.3056-0.31232 1.7152-3.57376 4.608-4.15232 9.88672-3.98336 15.50848 0.22528 7.5008 0.06656 15.01696 0.0512 22.52288-0.00512 1.24416 0.19456 2.23232 1.26464 3.13856 1.5104 1.28512 1.5104 4.72576 0.02048 5.90848-1.02912 0.8192-1.20832 1.7152-1.19808 2.88256 0.04608 5.12 0.02048 10.24 0.07168 15.36 0.01024 1.24928 0.01024 2.38592-1.26976 3.08736-0.66048 0.36352-0.83968 1.01888-0.8704 1.74592-0.02048 0.50176 0.0512 1.28-0.22528 1.4592-2.96448 1.93024-1.79712 4.89472-1.83296 7.45472-0.11264 7.936-0.06656 15.872-0.0512 23.808 0.00512 1.48992-0.11264 2.87744-1.20832 4.03968-0.9472 1.00352-1.01376 2.30912-1.01376 3.60448 0 2.304-0.2304 4.6336 0.04096 6.90688 0.57344 4.88448-1.43872 8.97536-3.60448 13.05088-0.5888 1.11104-0.69632 2.26304-0.68096 3.46624 0.01024 1.11104-0.128 2.24768 0.08192 3.32288 0.44032 2.23744-1.87904 3.52768-1.84832 5.39136 0.03072 1.81248 2.26816 3.02592 1.78688 5.30944-0.36352 1.70496 0.12288 3.57888-1.54112 4.92032-0.62464 0.50176-0.4864 1.40288-0.47104 2.18112 0.04096 2.39104 0.02048 4.77696 0.09216 7.168 0.03584 1.2544-0.69632 2.0992-1.15712 3.12832-1.10592 2.48832-3.70176 4.4544-3.20512 7.54176 0.7424 4.62848-2.02752 8.7296-1.83296 13.26592 0.04608 1.01376-0.28672 2.05824-0.17408 3.06176 0.42496 3.79904-0.42496 7.18336-2.99008 10.07104-1.23392 1.38752-1.38752 3.02592-1.32096 4.7872 0.16896 4.45952 0.11264 8.64256-3.62496 12.22656-1.37728 1.32096-2.55488 4.19328-2.56512 6.37952-0.01536 4.17792-2.38592 6.73792-4.89472 9.40032-0.11776 0.12288-0.33792 0.20992-0.36864 0.34816-0.7424 3.28192-4.38272 4.2752-5.64224 7.14752-0.4864 1.11104-1.50016 1.30048-2.57024 1.3056-3.84 0.01024-7.68-0.06144-11.51488 0.0512-1.6896 0.0512-2.42176-1.1776-3.29216-2.11456-2.21696-2.3808-5.888-1.68448-8.07936-4.02432-1.75616-1.8688-3.9936-3.11296-6.16448-4.39808-1.408-0.83968-1.63328-2.34496-2.43712-3.51232-1.42848-2.06848-3.87584-2.67264-5.64224-4.25984-1.6384-1.46944-2.6112-3.31264-3.72224-5.11488-1.2032-1.95072-2.51904-3.56864-5.01248-4.2496-2.28352-0.62464-3.40992-3.06688-4.5824-4.9152-2.83136-4.46464-7.08096-7.54688-10.42944-11.48416-1.40288-1.64864-3.17952-2.89792-3.584-5.37088-0.18432-1.1264-1.5616-2.17088-2.5856-3.03104-4.13696-3.49184-6.0672-8.77056-10.112-12.32384-0.82944-0.72704-1.42336-1.74592-2.29888-2.38592-3.19488-2.31936-4.61824-5.74464-5.86752-9.25184-0.49664-1.39776-1.6896-2.12992-2.59072-3.08736-2.87744-3.072-4.864-6.71744-7.02464-10.25536-0.25088-0.4096-0.52736-1.23904-0.35328-1.408 1.7664-1.65376 0.96256-4.56192 3.21536-6.07744 1.39776-0.94208 2.41152-2.37568 2.99008-4.26496 0.6912-2.24256 2.76992-3.8144 4.48-5.4528 0.78336-0.75264 1.29024-1.40288 1.39776-2.54464 0.19456-2.13504 2.3296-3.98848 4.5056-4.00896 3.40992-0.03072 6.84032-0.15872 10.23488 0.128 3.01568 0.25088 5.67296 1.8176 8.31488 3.23584 0.36864 0.19968 0.72704 0.72704 1.02912 0.68096 4.61312-0.68096 8.45824 2.87232 13.07648 2.30912 1.93536-0.23552 3.96288-0.29184 5.87264 0.03072 3.28192 0.55296 5.7088-1.17248 8.19712-2.67264 1.63328-0.98304 2.37568-3.1232 2.90816-4.59264 1.33632-3.70176 4.9152-6.34368 4.86912-10.60352 2.16064-1.24928 1.43872-4.224 3.36896-5.62176 0.26112-0.18944 0.61952-0.55808 0.58368-0.7936-0.58368-3.96288 2.28864-7.20384 2.29376-11.01824 0.00512-2.75968 1.74592-4.70528 3.1232-6.75328 0.65536-0.9728 1.14688-1.78176 1.14176-2.94912-0.01536-2.048 0.08192-4.096 0.08192-6.144 0-1.65376 0.18944-3.2256 1.2032-4.61312 0.56832-0.77824 0.75264-1.71008 0.75776-2.66752 0.00512-0.34304-0.1792-0.84992-0.01536-0.9984 2.39616-2.16576 1.52064-5.70368 3.4048-8.04352 0.64-0.7936 0.86528-1.59232 0.86528-2.57536 0.00512-8.61696 0.05632-17.23392 0.04608-25.856 0-1.49504 0.13312-2.88256 1.152-4.0704 0.57344-0.67072 0.83456-1.50528 0.85504-2.37056 0.0512-2.18624-0.26112-4.44928 1.87392-6.02624 0.29696-0.22016 0.2816-0.95744 0.29184-1.45408 0.14848-8.86784 0.43008-17.6896 1.7664-26.51136 0.8448-5.59616 0.26624-11.41248 0.27648-17.1264 0.01024-6.05696-0.0512-12.11392-0.06144-18.176-0.00512-4.3776-2.30912-7.54176-5.71392-9.78432-1.98144-1.3056-2.87232-2.688-2.74432-4.98176 0.128-2.29888 0.10752-4.608 0.09216-6.912-0.01536-2.12992-0.22016-4.22912 1.59232-5.93408 0.75264-0.70656 0.53248-1.93024 0.5376-2.95424 0.02048-2.90304 0.14336-5.80608 0.00512-8.704-0.19968-4.1472 1.3824-7.61344 3.73248-10.84416 0.1024-0.13824 0.2816-0.29184 0.27136-0.42496-0.3584-3.53792 2.29888-6.3744 2.31424-9.8048 0.0256-7.08096-0.15872-14.16704 0.06656-21.24288 0.08704-2.65728-1.68448-4.64384-1.76128-7.09632-0.13312-4.35712-2.26816-7.99744-4.01408-11.776-0.37376-0.80384-0.53248-1.59744-0.5376-2.46784-0.0256-6.56896-0.03584-13.14304-0.11264-19.712-0.02048-1.9968 0.33792-3.72224 2.2016-4.8384 0.9472-0.56832 0.99328-1.31584 0.6656-2.40128-1.01376-3.38944-2.37056-6.56384-4.4288-9.46688-0.8704-1.2288-0.50688-2.82112-0.50688-4.25472-0.01024-30.464-0.00512-60.928 0-91.38688 0-2.72896-0.24576-5.48864 0.06656-8.18688 0.57344-4.94592-1.18272-9.12896-3.67616-13.15328-0.58368-0.93696-0.73728-1.94048-0.55808-2.94912 0.55808-3.1744-0.62464-5.59104-3.06688-7.51616-0.54272-0.43008-1.23392-0.91648-1.11616-1.61792 0.58368-3.44576-1.10592-6.33344-2.05312-9.43104-0.45568-1.49504-1.7664-2.15552-2.37568-3.52768-1.71008-3.82464-3.24608-7.66464-4.18304-11.75552-0.11264-0.49664-0.75776-0.8704-1.14688-1.31072-1.77664-2.01728-3.4304-4.15744-2.87232-7.05024 0.4352-2.2528-1.11104-3.65568-1.92512-5.36064-1.1264-2.36032-2.36032-4.67968-3.6864-6.93248-0.55808-0.9472-0.88576-1.94048-0.72192-2.91328 0.50176-2.95424-0.80896-5.08928-2.9184-6.82496-1.14176-0.93696-1.34144-2.048-1.34656-3.38432-0.01024-4.39808-0.28672-8.6784-3.83488-12.02688-0.92672-0.8704-1.38752-2.35008-1.792-3.6352-0.8704-2.78016 0.19456-4.19328 3.06176-4.19328 9.728-0.00512 19.456 0.13824 29.184-0.0512 2.44736-0.04608 2.9184 1.99168 4.42368 2.88256 2.60096 1.54624 4.9664 3.57376 8.21248 3.62496 1.16736 0.02048 2.21184 0.25088 2.88768 1.30048 1.64864 2.55488 4.93056 2.72384 6.93248 4.80768 4.69504 4.90496 9.87648 9.33888 14.27456 14.53056 2.55488 3.01568 4.38272 6.54848 7.40352 9.3184 1.21856 1.11616 2.05824 3.66592 2.59584 5.67808 0.4352 1.62816 1.14176 2.87232 2.42176 3.72736 1.98656 1.3312 3.42016 2.99008 3.99872 5.33504 0.14848 0.60928 0.56832 1.00352 0.98816 1.44384 1.46944 1.52576 3.4816 2.59072 3.51232 5.26848 0.01024 0.89088 1.3056 1.94048 2.23232 2.61632 1.62304 1.19296 1.67424 2.74432 1.66912 4.51584-0.0512 10.57792-0.0256 21.16096-0.0256 31.73888 0.06144 0.03072 0.13824 0.03072 0.21504 0.03072zM238.04416 540.83072c2.304 0 4.608 0.02048 6.912-0.00512 3.82976-0.03584 6.95808 1.70496 10.18368 3.54816 1.68448 0.96256 3.47648 1.9712 5.31968 2.61632 3.21024 1.11616 6.52288 4.91008 6.66112 8.20224 0.03072 0.77824 0.1792 1.47968 0.56832 2.18624 2.00192 3.61984 2.58048 7.26528-0.05632 10.86464-0.49152 0.67072-0.54272 1.41824-0.49152 2.19136 0.32256 4.77184-0.30208 8.98048-3.69152 13.0048-1.42848 1.69984-2.72384 4.78208-2.69312 7.71072 0.0256 2.46784 0 4.66944-1.58208 7.13728-1.63328 2.54976-2.87744 5.6832-2.93888 9.27232-0.06656 3.57888-1.11616 7.53664-4.22912 10.112-1.53088 1.26464-1.92512 2.66752-1.75616 4.46464 0.41472 4.39808-1.35168 7.95648-3.59424 11.67872-1.32096 2.19136-3.41504 4.59264-2.72896 7.808 0.68096 3.17952-1.8688 5.43232-3.05152 7.97184-1.3312 2.86208-3.4048 5.21728-3.33312 8.7552 0.04096 2.2784-2.01728 4.096-3.01568 6.17984-0.26624 0.55808-1.21344 0.9984-1.05472 1.64352 0.76288 3.08224-2.10944 5.02272-2.3552 7.85408-0.1024 1.15712-1.7152 2.18624-2.65728 3.26144-0.50688 0.57856-1.17248 1.10592-1.22368 1.90464-0.24576 3.82976-2.39104 6.78912-4.3264 9.8816-1.05984 1.69472-2.43712 3.33312-2.22208 5.59104 0.06144 0.62464-0.384 1.09056-0.83456 1.51552-2.7904 2.6112-4.56704 5.8112-5.47328 9.51296-0.22528 0.9216-1.07008 1.32096-1.6896 1.85856-2.83136 2.4576-4.87936 5.5808-7.05024 8.5504-2.29376 3.13856-5.48864 5.77024-8.60672 6.8864-4.51072 1.6128-10.04544 2.43712-14.58688-0.0512-2.29888-1.2544-4.5824-3.38944-6.07744-6.2208-1.48992-2.82112-3.2-5.65248-5.10976-8.28928-0.99328-1.37216-0.64512-2.9696-0.60416-4.46464 0.04608-1.62816-0.31744-2.8672-1.50528-4.11648-3.19488-3.35872-5.36576-7.20384-4.82304-12.12416 0.15872-1.42848-0.17408-2.9184 0.01536-4.34176 0.55296-4.21888-1.47456-7.51616-3.64032-10.7776-0.34816-0.52224-0.47104-1.06496-0.56832-1.664-1.92-11.61728-2.2528-23.3472-2.13504-35.07712 0.03072-3.21024-0.99328-5.37088-3.46112-6.99392-0.82944-0.54784-0.8704-1.15712-0.8704-1.91488-0.00512-5.632-0.01024-11.25888 0.00512-16.89088 0-0.49664-0.00512-1.18272 0.29184-1.45408 3.328-3.04128 4.352-6.8608 4.1984-11.23328-0.11264-3.24608 0.27136-6.4768 1.52064-9.53856 0.53248-1.3056 0.34816-2.67776 0.34304-4.0448-0.00512-2.01216 0.49664-3.72736 1.49504-5.66784 1.31072-2.54976 3.29728-5.0432 2.8672-8.53504-0.70656-5.69856-0.0512-11.52 2.2272-16.7424 1.01888-2.33984 1.57696-4.86912 2.82112-7.04512 0.81408-1.42336 1.21344-2.70848 1.1776-4.29568-0.05632-2.38592 0.05632-4.77696 0.06144-7.16288 0.00512-3.0464 0.05632-5.89312 1.57696-8.86784 1.91488-3.75296 3.11296-7.93088 2.52416-12.42624-0.3072-2.3296-0.67584-4.97152 1.78176-6.784 0.61952-0.45568 0.4096-1.4592 0.27648-2.20672-0.53248-3.0976 0.6656-5.48864 3.03104-7.34208 0.98304-0.768 1.42336-1.64864 1.31584-2.85184-0.19456-2.12992 0.44032-3.17952 2.7904-3.97824 1.89952-0.64512 3.61984-1.1776 5.6576-1.36704 6.72256-0.63488 11.904 1.89952 16.38912 6.7072 1.55136 1.664 2.49344 3.11808 2.32448 5.50912-0.21504 3.0464 1.71008 5.39648 4.66432 6.31808 1.3568 0.42496 1.60256 1.408 1.5616 2.58048-0.0512 1.56672-0.09728 3.05152 1.56672 3.98848 0.73728 0.41472 0.64512 1.32608 0.63488 2.0992-0.03072 1.792-0.06144 3.584-0.06144 5.37088 0 0.5888-0.11264 1.54624 0.1792 1.71008 2.36544 1.33632 1.29024 4.4544 3.28192 6.02624 0.9728 0.768 0.52736 2.25792 0.56832 3.4304 0.14848 4.42368 3.87072 8.29952 8.35584 8.46848 2.97984 0.11264 5.96992 0.02048 8.95488 0.02048-0.00512 0.03072-0.00512 0.05632-0.00512 0.08192zM726.14912 475.4432c1.70496 0.0256 3.42528-0.09728 4.67968 1.47456 0.26624 0.3328 0.93696 0.55296 1.3824 0.49664 4.44416-0.57344 7.88992 1.6128 11.28448 3.97824 0.67584 0.47104 1.46432 0.40448 2.22208 0.4352 1.29536 0.05632 2.55488 0.16896 3.52768 1.19808 0.55808 0.5888 1.31072 0.89088 2.09408 0.77312 2.7392-0.41984 4.44416 1.29024 6.1696 2.92864 0.55808 0.52736 0.9984 1.37216 1.82272 1.24416 3.5328-0.54272 6.5536 0.91136 9.52832 2.39616 1.4848 0.7424 2.76992 1.8944 4.11648 2.8928 0.62464 0.46592 1.26464 1.01376 2.03776 0.97792 5.3504-0.21504 8.94976 4.08576 13.56288 5.2992 4.4032 1.15712 7.35232 4.44928 11.50464 5.89312 3.76832 1.31072 7.7312 2.41152 11.08992 5.21216 1.67424 1.39776 4.6848 2.16576 7.25504 2.55488 2.45248 0.37376 4.16256 2.14528 6.41536 2.96448 2.80064 1.01376 4.99712 3.86048 7.50592 4.90496 3.42016 1.42336 5.19168 4.11648 7.74656 6.1696 1.4848 1.19296 3.37408 1.60768 5.0176 2.59584 4.62336 2.78016 8.99584 5.8368 13.07136 9.32864 0.98816 0.84992 1.94048 1.4592 3.16416 1.9456 1.97632 0.78336 3.23072 2.7136 4.96128 3.89632 12.7232 8.71936 22.16448 20.89472 33.21344 31.37024 0.7168 0.68096 1.2544 1.36192 1.3312 2.37056 0.04608 0.6144 0.29696 1.44384 0.8192 1.48992 2.72896 0.25088 2.95936 2.54976 4.11136 4.30592 1.3312 2.03264 1.72032 4.45952 3.32288 6.36416 1.78176 2.11456 2.69824 4.89472 3.73248 7.36768 1.06496 2.54464 2.54464 4.41856 4.38272 6.23616 0.17408 0.16896 0.3584 0.45568 0.33792 0.67072-0.2304 2.71872 1.14176 4.97664 1.87904 7.4496 1.01888 3.4048 2.31936 6.55872 4.2752 9.49248 0.256 0.38912 0.29696 0.95744 0.32256 1.45408 0.05632 1.10592-0.1024 2.24256 0.08192 3.32288 0.9216 5.44256-0.7424 9.7024-5.53472 12.62592-1.02912 0.62976-0.9984 1.68448-0.99328 2.72896 0.04096 4.608 0.19456 9.216 0.03072 13.81376-0.08704 2.47296 2.08384 3.3536 2.97984 5.12512 2.16064 4.28544 2.81088 8.76544 0.98816 13.04064-0.96256 2.26304-2.62144 4.66944-4.3264 6.41536-3.10784 3.2-5.1712 7.07072-7.9872 10.41408-1.6896 2.00704-4.4032 3.28704-4.51072 6.45632-0.01536 0.40448-0.83456 0.77312-1.25952 1.18272-1.21856 1.18272-2.42688 2.30912-3.0976 3.98848-0.93696 2.34496-3.90656 2.89792-5.60128 1.05984-0.87552-0.95232-1.81248-1.10592-2.944-1.16224-2.8672-0.1536-5.19168-1.83296-7.51104-3.1744-1.9968-1.152-3.59936-3.0976-5.1456-4.8896-2.31424-2.688-5.7856-3.82464-8.17664-6.4-1.47968-1.59232-3.11296-2.8672-3.74272-5.23776-0.50688-1.89952-2.57024-3.09248-4.08576-4.4032-3.57888-3.0976-5.38624-7.5776-8.61184-10.83904-2.7136-2.7392-4.06528-6.0928-5.73952-9.33888-0.44032-0.84992-0.93184-1.5616-1.62816-2.2272-1.65376-1.5872-3.31264-3.23072-2.93376-5.888 0.09728-0.68096-0.17408-1.35168-0.68096-1.8688-2.74944-2.80064-4.42368-6.21568-5.76-9.86112-0.4608-1.2544-1.83808-1.88928-2.46784-3.17952-1.46432-2.97984-2.53952-6.10304-3.75296-9.17504-0.5888-1.49504-2.10944-2.16064-2.95936-3.43552-0.36864-0.55296-1.19808-0.9472-1.09568-1.64352 0.65536-4.6336-3.45088-7.11168-4.95616-10.78272-0.7936-1.94048-1.56672-3.70176-1.42336-5.77024 0.09728-1.3824-0.3072-2.4064-1.31584-3.4048-2.52928-2.49856-4.03968-5.59104-5.12-8.98048-0.55296-1.73568-1.39776-3.54304-2.6112-4.85888-1.24928-1.3568-1.6384-2.688-1.51552-4.36736 0.08192-1.14688-0.23552-2.16576-0.90624-3.12832-0.43008-0.6144-0.99328-1.37216-0.96256-2.03776 0.1024-2.11456-0.97792-3.52768-2.43712-4.75648-1.6384-1.37728-2.29888-3.072-2.01728-5.19168 0.21504-1.60768-1.42848-2.59072-1.5872-3.92192-0.50688-4.14208-3.61984-6.92736-5.14048-10.52672-0.93184-2.21184-3.35872-3.10272-5.23776-4.21376-1.27488-0.75264-2.67776-1.408-3.79904-2.38592-1.52576-1.33632-3.0464-2.41664-5.21216-2.14016-0.59392 0.0768-1.22368-0.11776-1.62816-0.60416-2.688-3.21536-6.41024-5.09952-9.61536-7.6288-2.14528-1.69472-4.77696-2.2784-6.84544-4.05504-1.15712-0.99328-2.46784-1.68448-3.0976-3.18464-0.1792-0.43008-0.62464-0.91648-1.04448-1.04448-3.82976-1.17248-7.13216-3.18976-9.97376-5.99552-0.60928-0.59904-1.41312-0.50688-2.17088-0.56832-3.63008-0.27648-4.608-1.31584-5.90848-4.864-0.75264-2.05824-3.36896-2.91328-4.31104-4.864-1.7408-3.59424-4.80768-6.25664-6.28224-10.11712-1.30048-3.40992-3.27168-6.76864-6.41536-9.05216-3.03616-2.20672-4.23936-5.14048-3.88608-8.84224 0.13824-1.43872 0.00512-2.89792 0.00512-4.34688 0-3.86048 0.1536-4.01408 3.9936-3.94752z" p-id="13805" fill="#51b829"></path></svg>
