<svg t="1631933983058" class="icon" viewBox="0 0 1024 1024" version="1.1" xmlns="http://www.w3.org/2000/svg" p-id="5700" width="200" height="200"><path d="M898.9 176.1l-330.3 5.7c-5.7-7.9-14.9-13-25.3-13h-62.4c-10.4 0-19.7 5.1-25.3 13l-330.3-5.7c-17.3 0-31.3 14-31.3 31.3v597.9c0 17.3 14 31.3 31.3 31.3l330.3 5.7c5.7 7.9 14.9 13 25.3 13h62.4c10.4 0 19.7-5.1 25.3-13l330.3-5.7c17.3 0 31.3-14 31.3-31.3V207.4c-0.1-17.3-14.1-31.3-31.3-31.3z" fill="#FFE91F" p-id="5701"></path><path d="M898.9 176.1l-330.3 5.7c-5.7-7.9-14.9-13-25.3-13H512v686.4h31.2c10.4 0 19.7-5.1 25.3-13l330.3-5.7c17.3 0 31.3-14 31.3-31.3V207.4c0-17.3-14-31.3-31.2-31.3z" fill="#5FE0A3" p-id="5702"></path><path d="M898.9 155.1h-0.4l-321.1 5.5c-9.4-8.2-21.6-12.8-34.2-12.8h-62.4c-12.7 0-24.8 4.7-34.3 12.8l-321.1-5.5h-0.4c-28.8 0-52.3 23.4-52.3 52.3v597.9c0 28.8 23.3 52.2 52.1 52.3l321.3 5.5c9.5 8.4 21.8 13.1 34.6 13.1h62.4c12.8 0 25.1-4.8 34.6-13.1l321.3-5.5c28.7-0.1 52-23.5 52-52.3V207.4c0.1-28.8-23.3-52.3-52.1-52.3z m10.2 650.2c0 5.7-4.6 10.3-10.3 10.3h-0.4l-330.3 5.7c-6.6 0.1-12.8 3.3-16.7 8.7-2 2.7-5 4.3-8.3 4.3h-62.4c-3.3 0-6.3-1.6-8.3-4.3-3.9-5.4-10-8.6-16.7-8.7l-330.3-5.7h-0.4c-5.7 0-10.3-4.6-10.3-10.3V207.4c0-5.6 4.5-10.2 10.1-10.3l330.1 5.7c6.9 0.1 13.4-3.1 17.4-8.7 2-2.7 5-4.3 8.3-4.3H543c3.3 0 6.3 1.6 8.3 4.3 4 5.6 10.5 8.8 17.4 8.7l330.1-5.7c5.6 0.1 10.1 4.6 10.1 10.3v597.9z" fill="#333333" p-id="5703"></path><path d="M512 233.5c-11.6 0-21 9.4-21 21v515c0 11.6 9.4 21 21 21s21-9.4 21-21v-515c0-11.6-9.4-21-21-21zM640.35 386.19l-1.395-41.975 170.598-5.667 1.394 41.974zM640.335 532.998l-1.395-41.975 170.598-5.668 1.395 41.975zM640.32 679.807l-1.395-41.975 170.597-5.668 1.395 41.975zM383.61 386.153l-170.598-5.67 1.395-41.975 170.597 5.67zM383.609 532.975l-170.598-5.67 1.395-41.975L385.004 491zM383.609 679.8l-170.598-5.67 1.395-41.975 170.598 5.67z" fill="#333333" p-id="5704"></path></svg>