<svg t="1629604960413" class="icon" viewBox="0 0 1025 1024" version="1.1" xmlns="http://www.w3.org/2000/svg" p-id="3442" width="200" height="200"><path d="M342.492501 832.853333c-13.653333 0-34.133333-6.826667-47.786666-44.373333-17.066667-44.373333-10.24-109.226667 17.066666-180.906667 10.24-27.306667 27.306667-58.026667 47.786667-85.333333-3.413333-10.24-3.413333-20.48-3.413333-30.72 0-23.893333 6.826667-58.026667 44.373333-92.16 10.24-71.68 40.96-136.533333 92.16-184.32 13.653333-20.48 34.133333-34.133333 54.613333-44.373333-47.786667-51.2-109.226667-81.92-180.906666-81.92-133.12 0-242.346667 109.226667-256 249.173333-23.893333 20.48-40.96 47.786667-40.96 75.093333 0 13.653333 3.413333 23.893333 10.24 37.546667-17.066667 20.48-40.96 54.613333-58.026667 92.16-23.893333 61.44-27.306667 119.466667-13.653333 157.013333 10.24 34.133333 30.72 30.72 47.786666 0 3.413333-6.826667 10.24-17.066667 17.066667-30.72 13.653333 40.96 34.133333 75.093333 61.44 105.813334-17.066667 3.413333-30.72 10.24-37.546667 17.066666-30.72 27.306667-30.72 58.026667-6.826666 81.92 34.133333 30.72 170.666667 47.786667 249.173333 0h27.306667c6.826667-10.24 13.653333-23.893333 27.306666-34.133333 3.413333-3.413333 6.826667-3.413333 6.826667-6.826667-3.413333-6.826667-10.24-13.653333-13.653333-23.893333-10.24 17.066667-23.893333 23.893333-44.373334 23.893333z" fill="#eb6841" p-id="3443"></path><path d="M1004.679168 617.813333c-13.653333-37.546667-37.546667-68.266667-54.613333-88.746666 6.826667-10.24 10.24-23.893333 10.24-34.133334 0-23.893333-13.653333-47.786667-37.546667-68.266666-13.653333-129.706667-116.053333-235.52-238.933333-235.52s-225.28 102.4-238.933334 235.52c-23.893333 20.48-37.546667 44.373333-37.546666 68.266666 0 13.653333 3.413333 23.893333 10.24 34.133334-17.066667 20.48-40.96 51.2-54.613334 88.746666-20.48 58.026667-27.306667 112.64-13.653333 146.773334 10.24 30.72 30.72 27.306667 44.373333 0 3.413333-6.826667 10.24-17.066667 17.066667-27.306667 10.24 37.546667 30.72 71.68 54.613333 98.986667-17.066667 3.413333-30.72 10.24-37.546666 17.066666-27.306667 23.893333-30.72 54.613333-6.826667 78.506667 30.72 30.72 160.426667 44.373333 235.52 0h54.613333c75.093333 44.373333 201.386667 27.306667 235.52 0 23.893333-23.893333 23.893333-51.2-6.826666-78.506667-6.826667-6.826667-20.48-13.653333-37.546667-17.066666 23.893333-27.306667 44.373333-61.44 54.613333-98.986667 6.826667 10.24 13.653333 20.48 17.066667 27.306667 17.066667 27.306667 34.133333 30.72 44.373333 0 13.653333-37.546667 6.826667-88.746667-13.653333-146.773334z" fill="#eb6841" p-id="3444"></path></svg>