<svg t="1629607279198" class="icon" viewBox="0 0 1024 1024" version="1.1" xmlns="http://www.w3.org/2000/svg" p-id="5057" width="200" height="200"><path d="M130.742 578.138c-32.8 81.096-38.227 158.42-11.81 172.787 18.276 9.97 46.732-12.84 73.516-54.331 10.627 45.441 36.82 86.214 74.278 119.176-39.222 15.176-64.918 39.963-64.918 67.984 0 46.161 69.397 83.43 154.986 83.43 77.22 0 141.188-30.264 152.992-70.14h18.368c12.033 39.874 75.862 70.14 153.174 70.14 85.683 0 154.986-37.27 154.986-83.43 0-28.021-25.65-52.628-64.965-67.984 37.323-32.96 63.696-73.732 74.237-119.176 26.779 41.492 55.1 64.302 73.468 54.33 26.552-14.366 21.26-91.69-11.856-172.786-25.872-63.495-60.932-110.373-87.67-120.88 0.362-3.861 0.678-8.13 0.678-12.215 0-24.608-6.604-47.328-17.865-65.829 0.225-1.481 0.225-2.873 0.225-4.353 0-11.36-2.579-21.914-7.012-31.03C788.816 178.54 685.81 47.11 519.019 47.11c-166.749 0-269.891 131.431-276.632 296.721-4.34 9.25-7.011 19.848-7.011 31.165 0 1.483 0 2.873 0.18 4.357-11.036 18.364-17.642 41.084-17.642 65.782 0 4.133 0.224 8.264 0.497 12.304-26.643 10.414-61.838 57.203-87.669 120.698z" fill="#5aa98f" p-id="5058"></path></svg>