<svg t="1635006867064" class="icon" viewBox="0 0 1024 1024" version="1.1" xmlns="http://www.w3.org/2000/svg" p-id="20922" width="200" height="200"><path d="M512.873 64.771c247.195 0 447.669 200.121 447.669 446.954 0 246.831-200.474 446.946-447.669 446.946-247.145 0-447.612-200.115-447.612-446.946 0-246.833 200.468-446.954 447.612-446.954zM343.394 566.112c-1.513 6.52-2.181 13.433-3.353 20.175l-20.149 121.496c-2.569 18.093-6.988 29.609 4.534 46.493 1.569 2.301 2.571 3.402 4.591 5.375 2.011 2.028 3.021 2.849 5.313 4.603 5.874 4.388 14.323 7.841 22.322 7.841 11.639 0 17.518-1.587 26.916-6.962 1.397-0.879 2.968-1.699 4.532-2.575 7.387-4.554 15.441-8.064 22.94-12.556 9.174-5.48 18.572-10.092 27.866-15.13 1.677-0.99 2.795-1.65 4.583-2.582 1.793-0.878 2.796-1.587 4.538-2.464l60.035-32.788c6.259-3.397 4.469-3.179 13.872 2.197l50.912 27.791c1.514 0.826 2.916 1.704 4.593 2.469l11.415 6.357c0.893 0.549 1.51 0.773 2.458 1.32 1.065 0.434 1.124 0.604 2.017 1.207 1.068 0.491 1.563 0.653 2.579 1.206l23.046 12.5a236.624 236.624 0 0 0 4.701 2.85l18.577 10.035c15.218 8.273 26.856 9.755 42.855 3.123 1.849-0.764 4.763-2.519 6.382-3.669 5.822-4.338 10.572-9.545 13.766-16.396 1.115-2.308 1.896-5.046 2.572-7.347 2.125-7.403 1.115-14.807-0.115-22.149l-4.863-30.653c-0.51-2.961-1.068-6.576-1.734-9.979-0.566-3.066-1.008-6.688-1.684-10.246-3.129-16.725-5.477-33.778-8.276-50.443-2.237-13.545-5.036-27.309-6.934-40.79-0.451-3.619-1.347-6.855-1.575-10.309 3.193-2.14 12.984-12.778 16.458-16.231l5.929-6.029c8.331-9.375 17.676-17.984 26.521-26.864 1.566-1.537 2.736-2.687 4.082-4.168 0.056-0.056 0.165-0.112 0.228-0.218l2.738-2.962c8.334-9.158 17.961-17.762 26.52-26.646l2.627-2.688c0.116-0.056 0.281-0.329 0.451-0.379l3.97-4.28c6.604-6.577 22.272-20.998 26.414-27.083 0.558-0.877 1.009-1.592 1.624-2.526 14.373-22.254 3.523-53.344-21.938-61.842-6.152-2.084-32.678-6.029-41.46-7.018l-70.214-10.527c-4.313-0.715-9.346-1.538-13.935-2.196l-28.147-4.217c-7.441-1.264-6.096 0-9.398-6.746l-20.763-43.749c-1.896-3.732-3.299-7.242-5.254-10.969l-10.299-21.93c-4.7-11.131-11.022-21.602-15.665-32.788l-5.15-10.963c-3.352-6.799-6.37-15.241-11.184-21.109-2.795-3.507-4.479-5.263-8.166-8.063-19.027-14.253-45.434-9.973-59.758 8.555-3.58 4.555-16.674 32.352-20.427 40.795-4.475 9.974-12.145 24.451-15.943 33.335-3.58 8.772-8.284 16.611-11.865 25.328l-19.638 41.23c-4.092 7.783 0 5.705-16.73 8.112l-53.493 8.17c-3.859 0.603-6.823 0.932-10.515 1.48l-42.859 6.47c-2.129 0.33-3.36 0.66-5.315 0.878-9.01 1.263-28.813 3.403-36.203 6.582-9.792 4.056-17.464 11.131-22.323 20.612-0.838 1.642-1.116 2.631-1.79 4.386-4.979 12.394-2.236 27.91 5.537 38.492 4.925 6.738 17.571 18.366 24.283 24.999l8.894 9.319c1.184 1.094 1.959 1.922 3.081 3.074l22.045 22.26c9.847 10.745 22.382 21.327 31.448 31.904 0.608 0.771 0.951 1.102 1.562 1.704 4.251 4.106 8.06 8.058 12.254 12.227 3.078 3.066 9.344 10.195 12.534 12.279z" fill="#ffa252" p-id="20923"></path></svg>
