<svg t="1636564788633" class="icon" viewBox="0 0 1024 1024" version="1.1" xmlns="http://www.w3.org/2000/svg" p-id="4699" width="200" height="200"><path d="M932.466 433.599c-14.842 0-26.867 12.03-26.867 26.867v254.751c0 59.258-48.208 107.47-107.47 107.47H227.195c-59.262 0-107.47-48.212-107.47-107.47v-276.65c0-59.258 48.207-107.47 107.47-107.47h195.909c14.842 0 26.867-12.03 26.867-26.867s-12.026-26.867-26.867-26.867H227.195c-88.885 0-161.205 72.316-161.205 161.205v276.651c0 88.889 72.32 161.205 161.205 161.205h570.933c88.885 0 161.205-72.316 161.205-161.205V460.467c0-14.838-12.025-26.868-26.867-26.868z" fill="#4D4D4D" p-id="4700"></path><path d="M502.114 601.6a26.762 26.762 0 0 0 10.539 2.169c10.434 0 20.36-6.122 24.716-16.324l107.138-250.912a8.952 8.952 0 0 1 8.239-5.436h279.721c1.974 0 3.888-0.243 5.74-0.647 0.492-0.107 0.953-0.312 1.439-0.447 1.358-0.378 2.687-0.804 3.95-1.381 0.611-0.278 1.177-0.636 1.77-0.96 1.092-0.602 2.145-1.245 3.138-1.989 0.575-0.43 1.117-0.892 1.663-1.373a26.548 26.548 0 0 0 2.732-2.809c0.28-0.331 0.625-0.57 0.892-0.917 0.16-0.208 0.251-0.443 0.404-0.654 0.579-0.802 1.067-1.658 1.558-2.523 0.391-0.691 0.805-1.367 1.129-2.08 0.372-0.817 0.643-1.677 0.934-2.536 0.278-0.824 0.573-1.636 0.767-2.475 0.186-0.795 0.273-1.616 0.385-2.436 0.131-0.953 0.26-1.897 0.289-2.854 0.007-0.268 0.079-0.518 0.079-0.788 0-0.568-0.132-1.099-0.167-1.659-0.058-0.937-0.126-1.865-0.281-2.79-0.147-0.87-0.361-1.705-0.588-2.545-0.224-0.831-0.459-1.65-0.763-2.458a26.186 26.186 0 0 0-1.076-2.412 26.306 26.306 0 0 0-1.223-2.256c-0.47-0.756-0.992-1.461-1.532-2.165-0.514-0.67-1.03-1.329-1.614-1.956-0.657-0.707-1.371-1.341-2.1-1.974-0.41-0.356-0.74-0.772-1.177-1.107L761.859 139.614c-11.789-9.035-28.643-6.8-37.669 4.976-9.026 11.781-6.796 28.643 4.976 37.669l124.08 95.103H652.745a62.604 62.604 0 0 0-57.653 38.071L487.955 566.341c-5.825 13.648 0.507 29.434 14.159 35.259z" fill="#4D4D4D" p-id="4701"></path></svg>
