<svg t="1632207961493" class="icon" viewBox="0 0 1024 1024" version="1.1" xmlns="http://www.w3.org/2000/svg" p-id="15103" width="200" height="200"><path d="M401.2 518.8c-94.4-56.4-132.4-174-89.2-274.8 43.2-101.2 154.4-154.8 260.4-125.6 106 29.2 174 132.4 159.2 241.2-14.8 108.8-107.6 190-217.6 190-175.2 0-317.2 142-317.2 317.2 0 13.6-10.8 24.4-24.4 24.4-13.6 0-24.4-10.8-24.4-24.4 0-158.8 102.4-299.2 253.2-348z m112.8-18c94.4 0 170.8-76.4 170.8-170.8S608.4 159.2 514 159.2 343.2 235.6 343.2 330 419.6 500.8 514 500.8z m366 366c0 13.6-10.8 24.4-24.4 24.4-13.6 0-24.4-10.8-24.4-24.4 0-89.2-37.6-174.4-103.6-234.8-10-9.2-10.8-24.4-1.6-34.4 9.2-10 24.4-10.8 34.4-1.6C836.8 665.6 880 764 880 866.8z m0 0" fill="#ffffff" p-id="15104"></path><path d="M855.6 897.2c-16.8 0-30.4-13.6-30.4-30.4 0-87.6-36.8-171.2-101.6-230-12.4-11.2-13.2-30.4-2-42.8 5.6-6 12.8-9.6 21.2-10 8-0.4 16 2.4 22 8 77.6 70.4 121.6 170.8 121.6 275.2-0.4 16.4-14 30-30.8 30zM744 596h-0.8c-4.8 0.4-9.6 2.4-12.8 6-6.8 7.6-6.4 19.2 1.2 26 67.2 61.2 106 148.4 105.6 239.2 0 10 8.4 18.4 18.4 18.4 10 0 18.4-8.4 18.4-18.4 0-101.2-42.8-198.4-117.6-266.4-3.6-3.2-8-4.8-12.4-4.8zM172.4 897.2c-16.8 0-30.4-13.6-30.4-30.4 0-157.6 98-296.8 245.6-350-88.8-60-123.6-176-81.2-275.6C350.4 138 465.6 82.4 574 112.4c108.4 30 178.8 136.4 163.6 247.6C722.4 471.2 626.4 555.2 514 555.2c-171.6 0-311.2 139.6-311.2 311.2 0 17.2-13.6 30.8-30.4 30.8z m342-780.8c-83.6 0-162.8 49.6-196.8 129.6-41.6 98-4.4 212.8 86.8 267.2l11.2 6.8-12.4 4C254.4 572.4 154 710 154 866.4c0 10 8.4 18.4 18.4 18.4s18.4-8.4 18.4-18.4c0-178.4 144.8-323.2 323.2-323.2 106.4 0 197.2-79.6 211.6-184.8C740 252.8 673.2 152 570.8 124c-18.8-4.8-37.6-7.6-56.4-7.6z m-0.4 390.4c-97.6 0-176.8-79.2-176.8-176.8 0-97.6 79.2-176.8 176.8-176.8 97.6 0 176.8 79.2 176.8 176.8 0 97.6-79.2 176.8-176.8 176.8z m0-341.6c-90.8 0-164.8 74-164.8 164.8s74 164.8 164.8 164.8 164.8-74 164.8-164.8-74-164.8-164.8-164.8z" fill="#ffffff" p-id="15105"></path></svg>
