<svg t="1643029631543" class="icon" viewBox="0 0 1024 1024" version="1.1" xmlns="http://www.w3.org/2000/svg" p-id="12602" width="200" height="200"><path d="M468.48 940.8a463.36 463.36 0 1 1 463.36-463.36 463.36 463.36 0 0 1-463.36 463.36z m0-862.72a399.36 399.36 0 1 0 399.36 399.36 400 400 0 0 0-399.36-399.36z" fill="#bfbfbf" p-id="12603"></path><path d="M167.68 487.04a32 32 0 0 1-32-32 320 320 0 0 1 320-320 32 32 0 0 1 0 64 256 256 0 0 0-256 256 32 32 0 0 1-32 32zM986.88 1016.32a34.56 34.56 0 0 1-22.4-8.96l-120.32-120.96a31.36 31.36 0 1 1 44.8-44.8L1009.92 960a32.64 32.64 0 0 1 0 45.44 34.56 34.56 0 0 1-23.04 10.88z"  p-id="12604"></path></svg>
