<svg t="1636281746754" class="icon" viewBox="0 0 1024 1024" version="1.1" xmlns="http://www.w3.org/2000/svg" p-id="33353" width="200" height="200"><path d="M511.999488 3.515057C231.174592 3.515057 3.515568 231.1618 3.515568 512c0 280.814664 227.659023 508.484943 508.48392 508.484943 280.826943 0 508.48392-227.669256 508.48392-508.484943 0.001023-280.839223-227.658-508.484943-508.48392-508.484943m272.560676 374.255822L468.167191 694.163853c-13.228279 13.239536-34.70236 13.239536-47.931663 0L262.037507 535.965831c-13.239536-13.239536-13.239536-34.716686 0-47.933709 13.234419-13.239536 34.709523-13.239536 47.938825 0l134.228097 134.227074 292.417933-292.428165c13.233396-13.238512 34.70543-13.238512 47.938826 0 13.240559 13.225209 13.240559 34.700313-0.001024 47.939848m0 0z" p-id="33354"></path></svg>
