<svg t="1631951540605" class="icon" viewBox="0 0 1024 1024" version="1.1" xmlns="http://www.w3.org/2000/svg" p-id="18293" width="200" height="200"><path d="M321.1264 194.56H165.888c-15.0528 0-26.8288 11.776-26.8288 26.8288v581.12c0 15.0528 11.776 26.8288 26.8288 26.8288h155.2384c15.0528 0 26.8288-11.776 26.8288-26.8288V221.3888c0-15.0528-12.288-26.8288-26.8288-26.8288z m-26.8288 581.12h-101.4784v-527.36h101.4784v527.36z m591.36-25.7024L736.8704 257.9456c-4.4032-14.0288-19.2512-21.9136-33.28-17.7152l-126.2592 38.0928v-56.9344c0-15.0528-11.776-26.8288-26.8288-26.8288H395.264c-15.0528 0-26.8288 11.776-26.8288 26.8288v581.12c0 15.0528 11.776 26.8288 26.8288 26.8288h155.2384c15.0528 0 26.8288-11.776 26.8288-26.8288V451.8912l108.544 358.2976c4.1984 14.2336 19.0464 22.4256 33.28 18.2272l148.7872-45.1584c6.9632-2.1504 12.3904-6.4512 16.0768-12.9024s3.7888-13.9264 1.6384-20.3776z m-361.984 25.7024h-101.4784v-527.36h101.4784v527.36z m205.6192-6.9632l-133.12-440.4224 97.1776-29.4912 133.2224 440.4224-97.28 29.4912z" p-id="18294" ></path></svg>