<svg t="1644654250595" class="icon" viewBox="0 0 1024 1024" version="1.1" xmlns="http://www.w3.org/2000/svg" p-id="15256" width="200" height="200"><path d="M939.314286 536.8c19.2-25.371429 29.828571-56.457143 29.828571-88.8 0-51.314286-28.685714-99.885714-74.857143-126.971429a77.337143 77.337143 0 0 0-39.2-10.628571H581.028571l6.857143-140.457143c1.6-33.942857-10.4-66.171429-33.714285-90.742857A121.851429 121.851429 0 0 0 465.142857 41.028571c-59.428571 0-112 40-127.771428 97.257143l-98.171429 355.428572H91.428571c-20.228571 0-36.571429 16.342857-36.571428 36.571428v416c0 20.228571 16.342857 36.571429 36.571428 36.571429h687.2c10.514286 0 20.8-2.057143 30.285715-6.171429 54.4-23.2 89.485714-76.342857 89.485714-135.314285 0-14.4-2.057143-28.571429-6.171429-42.285715 19.2-25.371429 29.828571-56.457143 29.828572-88.8 0-14.4-2.057143-28.571429-6.171429-42.285714 19.2-25.371429 29.828571-56.457143 29.828572-88.8-0.228571-14.4-2.285714-28.685714-6.4-42.4zM137.142857 900.571429V576h92.571429v324.571429h-92.571429z m727.314286-403.428572l-25.028572 21.714286 15.885715 29.028571a64.228571 64.228571 0 0 1 7.885714 31.2c0 18.857143-8.228571 36.8-22.4 49.142857l-25.028571 21.714286 15.885714 29.028572a64.228571 64.228571 0 0 1 7.885714 31.2c0 18.857143-8.228571 36.8-22.4 49.142857l-25.028571 21.714285 15.885714 29.028572a64.228571 64.228571 0 0 1 7.885714 31.2c0 25.6-15.085714 48.685714-38.4 59.2H302.857143V572.342857l113.714286-412a50.4 50.4 0 0 1 48.228571-36.914286c8.685714 0 17.257143 2.514286 24.114286 7.657143 11.314286 8.457143 17.371429 21.257143 16.685714 34.857143l-10.971429 226.742857h359.314286C874.285714 405.142857 886.857143 426.171429 886.857143 448c0 18.857143-8.228571 36.685714-22.4 49.142857z" p-id="15257" fill="#8a8a8a"></path></svg>
