<svg t="1632303364667" class="icon" viewBox="0 0 1024 1024" version="1.1" xmlns="http://www.w3.org/2000/svg" p-id="5489" width="200" height="200"><path d="M512.01 0a511.99 511.99 0 1 0 512.01 512.01C1024.02 229.236 794.784 0 512.01 0zM390.304 170.29a192.075 192.075 0 0 1 100.904-41.703 194.65 194.65 0 1 1-100.904 41.703zM849.66 829.723c-1.003 18.462-11.62 31.459-27.526 40.857a152.712 152.712 0 0 1-52.261 17.322c-43.63 7.747-87.79 8.12-131.89 8.435-42.411 0.314-84.802 0-127.192 0-45.34 0-90.68 0.432-135.902 0-28.745-0.374-57.49-1.436-86.138-3.46a238.005 238.005 0 0 1-75.894-15.966 63.724 63.724 0 0 1-32.638-26.661 53.617 53.617 0 0 1-6.233-25.069 246.852 246.852 0 0 1 31.459-134.623 256.388 256.388 0 0 1 136-115.297 268.107 268.107 0 0 1 95.202-16.87h150.982a262.424 262.424 0 0 1 176.011 64.53 244.591 244.591 0 0 1 82.933 144.533 261.5 261.5 0 0 1 3.087 62.269z m-69.8-154.659a23.083 23.083 0 0 0-31.261-3.932c-45.714 33.267-166.18 121.057-187.73 137.12-26.68 19.78-52.752 59.556-52.752 59.556l3.932 6.783s26.032-0.806 72.335-28.372c36.905-21.982 147.994-106.173 191.997-139.794a21.982 21.982 0 0 0 3.677-31.46z" fill="" p-id="5490"></path></svg>