<svg t="1636533758305" class="icon" viewBox="0 0 1024 1024" version="1.1" xmlns="http://www.w3.org/2000/svg" p-id="4815" width="200" height="200"><path d="M309.209 434.548c-41.012 0-74.378-33.366-74.378-74.378 0-41.013 33.366-74.379 74.378-74.379 41.013 0 74.379 33.366 74.379 74.379 0 41.012-33.366 74.378-74.38 74.378z m0-106.255c-17.576 0-31.876 14.3-31.876 31.877 0 17.577 14.3 31.876 31.876 31.876 17.577 0 31.877-14.3 31.877-31.876s-14.3-31.877-31.877-31.877z" p-id="4816"></path><path d="M840.487 862.255H202.955c-33.785 0-68.392-14.127-94.95-39.183-27.322-25.778-42.993-59.967-42.993-94.226v-461.09c0-34.748 15.44-67.58 43.474-92.452 26.167-23.213 60.6-36.526 94.468-36.526h637.532c68.186 0 117.872 54.243 117.872 128.978v461.09c0 76.337-50.785 133.41-117.871 133.41zM202.955 181.757c-44.97 0-94.963 36.604-94.963 86v461.089c0 46.892 45.995 91.454 94.963 91.454h637.532c49.238 0 74.894-46.12 74.894-91.454v-461.09c0-50.813-30.735-86-74.894-86H202.955z" p-id="4817"></path><path d="M495.914 848.952h-42.502c0-134.053 46.174-257.97 130.016-349.956 43.67-47.911 96.187-85.353 155.734-111.28 63.04-27.448 132.216-41.368 207.941-41.368v42.502c-296.76 0-451.189 231.905-451.189 460.102z" p-id="4818"></path><path d="M115.677 752.769L77.72 733.647c44.548-88.44 112.893-152.55 197.646-185.404 85.685-33.212 186.976-33.736 292.921-1.52l-12.365 40.665c-193.814-58.938-358.392 2.885-440.245 165.38z" p-id="4819"></path></svg>