<svg t="1632303277351" class="icon" viewBox="0 0 1024 1024" version="1.1" xmlns="http://www.w3.org/2000/svg" p-id="2984" width="200" height="200"><path d="M328.056 446.98c74.996 72.496 184.992 94.994 282.488 54.996 129.994-52.498 192.49-199.99 139.992-329.984-25-64.998-77.496-114.994-139.992-139.994-62.498-25-134.994-25-197.49 0-79.998 30-137.494 99.996-154.994 184.992s10 169.992 69.996 229.99z m389.98 132.492H303.06c-117.494 0-217.488 94.996-217.488 212.49-2.5 119.996 92.494 217.49 212.49 219.99h419.98c119.994 2.5 217.488-92.496 219.988-212.49 2.5-119.994-92.496-217.49-212.49-219.99h-7.5z" fill="#ffffff" p-id="2985"></path></svg>